<?xml version="1.0" encoding="UTF-8" standalone="no"?>
<!-- Created with Inkscape (http://www.inkscape.org/) -->

<svg
   width="596.97858"
   height="192.22792"
   viewBox="0 0 157.95057 50.860304"
   version="1.1"
   id="svg1"
   xml:space="preserve"
   xmlns="http://www.w3.org/2000/svg"
   xmlns:svg="http://www.w3.org/2000/svg"><defs
     id="defs1" /><g
     id="g6224"
     transform="translate(10.151685,-242.02563)"
     style="fill:#ffffff;fill-opacity:1"><g
       id="g6166"
       transform="matrix(2.2814365,0,0,2.2814365,-250.60114,59.229235)"
       style="fill:#ffffff;fill-opacity:1;stroke-width:1.02364"><path
         d="m 149.61174,83.509592 c -1.0465,0 -1.62214,0.884745 -1.62214,1.496423 v 0.785226 c 0,0.900771 0.73595,1.458912 1.41845,1.458912 h 2.39575 c 0.30183,0 0.36502,0.1976 0.36502,0.364318 v 0.50674 c 0,0.05376 -0.0109,0.540461 -0.36502,0.540461 h -3.26752 c -0.32471,0 -0.55934,0.225902 -0.55934,0.535041 v 0.14007 c 0,0.307957 0.23463,0.532447 0.55934,0.532447 h 3.44513 c 0.90054,0 1.48164,-0.626535 1.48164,-1.597126 v -0.847247 c 0,-0.91138 -0.65484,-1.318856 -1.30494,-1.318856 h -2.35731 c -0.35488,0 -0.51569,-0.266224 -0.51569,-0.454399 v -0.467831 c 0,-0.294525 0.19688,-0.465249 0.54117,-0.465249 h 2.6094 c 0.31999,0 0.56075,-0.229909 0.56075,-0.533859 v -0.139828 c 0,-0.305133 -0.24477,-0.535284 -0.57159,-0.535284 h -2.81295 z"
         id="path6144"
         style="fill:#ffffff;fill-opacity:1;stroke-width:0.13763" /><path
         d="m 159.40773,83.509592 c -0.30937,0 -0.55861,0.251367 -0.55861,0.560748 v 4.011706 c 0,0.321402 -0.26222,0.579612 -0.57961,0.579612 h -1.82112 c -0.31856,0 -0.57937,-0.25821 -0.57937,-0.579612 V 84.07034 c 0,-0.309381 -0.25137,-0.560748 -0.56051,-0.560748 h -0.17614 c -0.31386,0 -0.56075,0.247602 -0.56075,0.560748 v 4.163634 c 0,0.969395 0.76283,1.672552 1.81359,1.672552 h 1.9475 c 1.04934,0 1.81171,-0.702929 1.81171,-1.672552 V 84.07034 c 0,-0.313146 -0.24595,-0.560748 -0.55933,-0.560748 h -0.17733 z"
         id="path6146"
         style="fill:#ffffff;fill-opacity:1;stroke-width:0.13763" /><path
         d="m 162.89401,83.509592 c -1.04603,0 -1.62334,0.884745 -1.62334,1.496423 v 0.785226 c 0,0.900771 0.73736,1.458912 1.42032,1.458912 h 2.39508 c 0.30231,0 0.36575,0.1976 0.36575,0.364318 v 0.50674 c 0,0.05376 -0.0109,0.540461 -0.36575,0.540461 h -3.269 c -0.32329,0 -0.55933,0.225902 -0.55933,0.535041 v 0.14007 c 0,0.307957 0.23604,0.532447 0.55933,0.532447 h 3.44634 c 0.90079,0 1.48446,-0.626535 1.48446,-1.597126 v -0.847247 c 0,-0.91138 -0.65672,-1.318856 -1.30683,-1.318856 h -2.35731 c -0.35583,0 -0.51618,-0.266224 -0.51618,-0.454399 v -0.467831 c 0,-0.294525 0.1969,-0.465249 0.54118,-0.465249 h 2.61087 c 0.31928,0 0.5591,-0.229909 0.5591,-0.533859 v -0.139828 c 0,-0.305133 -0.24454,-0.535284 -0.57277,-0.535284 h -2.81175 z"
         id="path6148"
         style="fill:#ffffff;fill-opacity:1;stroke-width:0.13763" /><path
         d="m 167.85789,84.044701 v 5.291665 c 0,0.303722 0.22919,0.532447 0.53291,0.532447 h 4.21688 c 0.32471,0 0.55934,-0.22449 0.55934,-0.532447 v -0.140069 c 0,-0.30914 -0.23463,-0.535042 -0.55934,-0.535042 h -3.45361 V 87.31407 h 2.53061 c 0.324,0 0.55934,-0.227314 0.55934,-0.535284 v -0.139827 c 0,-0.309382 -0.23534,-0.533859 -0.55934,-0.533859 h -2.53061 v -1.387519 h 3.27815 c 0.32353,0 0.55933,-0.223066 0.55933,-0.533859 v -0.139828 c 0,-0.309382 -0.2358,-0.535311 -0.55933,-0.535284 l -4.02918,4.04e-4 c -0.31009,0 -0.54518,0.230554 -0.54518,0.535687 z"
         id="path6150"
         style="fill:#ffffff;fill-opacity:1;stroke-width:0.13763" /><g
         transform="matrix(0.23581107,0,0,0.23581107,16.716425,-9.326478)"
         stroke-width="0"
         id="g6160"
         style="fill:#ffffff;fill-opacity:1"><path
           d="m 491.25,404.37 c -2.241,0 -4.065,1.744 -4.065,3.894 v 8.461 c 0,2.184 1.765,3.963 3.929,3.963 h 5.473 c 2.164,0 3.929,-1.779 3.929,-3.963 v -8.461 c 0,-2.149 -1.825,-3.894 -4.065,-3.894 z m -1.184,12.019 v -7.726 c 0,-0.906 0.744,-1.647 1.654,-1.647 h 4.264 c 0.89,0 1.648,0.758 1.648,1.647 v 7.726 c 0,0.912 -0.738,1.653 -1.648,1.653 h -4.296 c -0.912,0 -1.622,-0.725 -1.622,-1.653 z"
           id="path6152"
           style="fill:#ffffff;fill-opacity:1;stroke-width:0" /><path
           d="m 512.91,404.27 c -1.578,0 -2.768,0.564 -3.723,1.026 -0.582,0.279 -1.086,0.52 -1.477,0.52 -0.177,0 -0.328,-0.08 -0.408,-0.211 l -0.364,-0.696 c -0.091,-0.183 -0.456,-0.541 -0.907,-0.541 h -0.541 c -0.52,0 -0.936,0.467 -0.936,1.037 v 21.461 c 0,0.673 0.531,1.203 1.203,1.203 h 0.468 c 0.667,0 1.209,-0.536 1.209,-1.203 v -7.121 c 0,-0.211 0.137,-0.439 0.276,-0.439 0.391,0 0.895,0.229 1.477,0.496 0.955,0.439 2.145,0.98 3.723,0.98 h 0.505 c 2.794,0 4.532,-1.597 4.532,-4.162 v -8.192 c 0,-2.526 -1.775,-4.157 -4.532,-4.157 h -0.505 z m -5.475,11.952 v -7.39 c 0,-1.021 0.798,-1.818 1.818,-1.818 h 3.997 c 1.021,0 1.818,0.798 1.818,1.818 v 7.39 c 0,1.003 -0.818,1.818 -1.818,1.818 h -3.997 c -1.001,0 -1.818,-0.815 -1.818,-1.818 z"
           id="path6154"
           style="fill:#ffffff;fill-opacity:1;stroke-width:0" /><path
           d="m 521.98,408.26 v 8.398 c 0,2.178 1.768,4.025 3.854,4.025 h 5.647 c 0.698,0 1.203,-0.484 1.203,-1.141 v -0.37 c 0,-0.661 -0.505,-1.135 -1.203,-1.135 h -4.639 c -1.3,0 -1.986,-0.639 -1.986,-1.854 v -2.457 h 8.369 c 1.346,0 2.142,-0.821 2.142,-2.212 v -3.256 c 0,-2.149 -1.822,-3.8944 -4.054,-3.894 l -5.273,0.001 c -2.2401,0.002 -4.06,1.745 -4.06,3.895 z m 2.877,0.371 c 0,-0.907 0.713,-1.619 1.621,-1.619 h 4.396 c 0.906,0 1.613,0.712 1.613,1.619 v 2.622 h -7.631 c 10e-4,-0.342 10e-4,-2.622 10e-4,-2.622 z"
           id="path6156"
           style="fill:#ffffff;fill-opacity:1;stroke-width:0" /><path
           d="m 547,404.27 c -1.573,0 -2.76,0.564 -3.718,1.021 -0.596,0.28 -1.105,0.525 -1.521,0.525 -0.183,0 -0.257,-0.023 -0.399,-0.269 l -0.331,-0.604 c -0.19,-0.382 -0.513,-0.575 -0.949,-0.575 h -0.465 c -0.562,0 -0.972,0.438 -0.972,1.037 v 14.077 c 0,0.667 0.527,1.203 1.206,1.203 h 0.465 c 0.667,0 1.211,-0.542 1.211,-1.203 v -10.65 c 0,-0.998 0.815,-1.818 1.813,-1.818 h 3.999 c 1.001,0 1.816,0.82 1.816,1.818 v 10.65 c 0,0.667 0.53,1.203 1.203,1.203 h 0.47 c 0.667,0 1.209,-0.542 1.209,-1.203 v -11.055 c 0,-2.526 -1.776,-4.157 -4.535,-4.157 z"
           id="path6158"
           style="fill:#ffffff;fill-opacity:1;stroke-width:0" /></g><g
         transform="matrix(0.23581107,0,0,0.23581107,16.716425,-9.326478)"
         id="g6164"
         style="fill:#ffffff;fill-opacity:1;stroke-width:1.02364"><path
           d="m 667.46,415.23 c 1.218,0 2.188,0.99 2.188,2.229 0,1.257 -0.971,2.237 -2.198,2.237 -1.218,0 -2.208,-0.98 -2.208,-2.237 0,-1.238 0.99,-2.229 2.208,-2.229 z m -0.01,0.346 c -0.98,0 -1.782,0.842 -1.782,1.882 0,1.06 0.802,1.891 1.792,1.891 0.99,0.011 1.782,-0.831 1.782,-1.881 0,-1.05 -0.792,-1.892 -1.782,-1.892 z m -0.416,3.179 h -0.396 v -2.485 c 0.208,-0.03 0.406,-0.06 0.703,-0.06 0.377,0 0.624,0.079 0.772,0.188 0.149,0.108 0.229,0.276 0.229,0.515 0,0.326 -0.218,0.524 -0.485,0.604 v 0.021 c 0.218,0.039 0.366,0.237 0.416,0.604 0.06,0.387 0.118,0.535 0.158,0.614 h -0.416 c -0.06,-0.079 -0.119,-0.307 -0.168,-0.634 -0.06,-0.316 -0.218,-0.436 -0.535,-0.436 h -0.277 v 1.069 z m 0,-1.377 h 0.287 c 0.327,0 0.604,-0.118 0.604,-0.426 0,-0.218 -0.158,-0.436 -0.604,-0.436 -0.129,0 -0.218,0.01 -0.287,0.021 z"
           fill="#73ba25"
           id="path6162"
           style="fill:#ffffff;fill-opacity:1;stroke-width:1.02364" /></g></g><path
       style="font-weight:600;font-size:6.54082px;line-height:0.75;font-family:'Source Sans Pro';-inkscape-font-specification:'Source Sans Pro Semi-Bold';letter-spacing:0.09198px;word-spacing:0px;fill:#ffffff;fill-opacity:1;stroke-width:6.80108;stroke-linecap:round;stroke-linejoin:round;paint-order:markers fill stroke"
       d="m 51.904017,274.38684 -0.238323,0.82851 h 1.729703 l -0.238164,-0.82851 q -0.165797,-0.53856 -0.321143,-1.10832 -0.144102,-0.5696 -0.289946,-1.12891 h -0.04117 q -0.134601,0.5696 -0.289947,1.1392 -0.145686,0.55947 -0.310691,1.09803 z m -2.268424,3.60446 2.206191,-6.77392 h 1.408719 l 2.206191,6.77392 h -1.263666 l -0.52827,-1.83327 h -2.278717 l -0.52827,1.83327 z m 8.307579,0.1251 q -0.517977,0 -1.035795,-0.19683 -0.517977,-0.20713 -0.890742,-0.50753 l 0.559307,-0.76643 q 0.341728,0.25891 0.683615,0.41425 0.341728,0.15519 0.724945,0.15519 0.414413,0 0.611089,-0.17609 0.196835,-0.17609 0.196835,-0.435 0,-0.21742 -0.165639,-0.35218 -0.155187,-0.1441 -0.403961,-0.24862 -0.248617,-0.11401 -0.517977,-0.21742 -0.331435,-0.1251 -0.662871,-0.30039 -0.321142,-0.18639 -0.528269,-0.46604 -0.207128,-0.29011 -0.207128,-0.71481 0,-0.67317 0.497232,-1.09787 0.497074,-0.42471 1.346486,-0.42471 0.538563,0 0.963269,0.18654 0.424548,0.18639 0.735397,0.42471 l -0.549014,0.72495 q -0.269361,-0.19684 -0.549014,-0.3107 -0.269202,-0.1251 -0.5696,-0.1251 -0.383217,0 -0.5696,0.1658 -0.186542,0.15519 -0.186542,0.39351 0,0.3004 0.310691,0.45574 0.31085,0.15519 0.725104,0.3004 0.35218,0.1251 0.683615,0.31069 0.331436,0.17609 0.549014,0.46604 0.227872,0.29011 0.227872,0.76659 0,0.65242 -0.507525,1.11862 -0.507525,0.45574 -1.470794,0.45574 z m 3.190679,-0.1251 v -5.0857 h 1.19114 v 5.0857 z m 0.600796,-5.97645 q -0.321142,0 -0.517818,-0.18638 -0.196835,-0.18638 -0.196835,-0.49723 0,-0.3004 0.196835,-0.48678 0.196676,-0.18638 0.517818,-0.18638 0.321142,0 0.517818,0.18638 0.196834,0.18638 0.196834,0.48678 0,0.31085 -0.196834,0.49723 -0.196676,0.18638 -0.517818,0.18638 z m 3.491235,6.10076 q -0.662871,0 -1.087577,-0.41441 -0.414413,-0.41426 -0.414413,-1.07713 0,-0.81822 0.714811,-1.26367 0.714653,-0.45574 2.278559,-0.62138 -0.01584,-0.40396 -0.21742,-0.69406 -0.196835,-0.3004 -0.714653,-0.3004 -0.372924,0 -0.735397,0.14568 -0.35218,0.14569 -0.694066,0.35218 l -0.434999,-0.79747 q 0.424706,-0.26936 0.952975,-0.46619 0.538563,-0.19684 1.139359,-0.19684 0.952817,0 1.419012,0.56976 0.476329,0.55931 0.476329,1.62614 v 3.01411 h -0.983854 l -0.08234,-0.5593 h -0.04117 q -0.341886,0.28994 -0.735397,0.48678 -0.383217,0.19683 -0.83896,0.19683 z m 0.383217,-0.93223 q 0.310691,0 0.559307,-0.14569 0.25891,-0.15519 0.548856,-0.41425 v -1.13936 q -1.035636,0.1346 -1.439598,0.40396 -0.403962,0.25891 -0.403962,0.64213 0,0.34188 0.207128,0.49723 0.207127,0.15519 0.528269,0.15519 z m 8.173453,0.93223 q -0.683615,0 -1.325742,-0.25907 -0.631833,-0.25891 -1.118614,-0.73524 l 0.70436,-0.81837 q 0.362473,0.34189 0.828509,0.55931 0.466195,0.20712 0.932231,0.20712 0.580052,0 0.88045,-0.23816 0.300239,-0.23817 0.300239,-0.63184 0,-0.4247 -0.300239,-0.61108 -0.290105,-0.18639 -0.745849,-0.38322 l -0.932231,-0.40396 q -0.331435,-0.14569 -0.652419,-0.37293 -0.310691,-0.22787 -0.517977,-0.57989 -0.196676,-0.35218 -0.196676,-0.84941 0,-0.53856 0.289947,-0.96327 0.300398,-0.435 0.807923,-0.68362 0.517818,-0.25891 1.180689,-0.25891 0.590503,0 1.139358,0.23817 0.549015,0.22787 0.942525,0.62154 l -0.611089,0.76643 q -0.320984,-0.26936 -0.683615,-0.4247 -0.352022,-0.15519 -0.787179,-0.15519 -0.47633,0 -0.776727,0.21758 -0.290105,0.20713 -0.290105,0.58005 0,0.25891 0.145685,0.435 0.155188,0.16564 0.403962,0.28995 0.248616,0.11401 0.52827,0.22787 l 0.92178,0.38322 q 0.600795,0.2589 0.984013,0.68361 0.383217,0.41441 0.383217,1.14981 0,0.54886 -0.289947,1.0046 -0.290105,0.45574 -0.83896,0.7354 -0.538721,0.26936 -1.305156,0.26936 z m 5.220938,0 q -0.818216,0 -1.19114,-0.52827 -0.372924,-0.52827 -0.372924,-1.49154 v -3.1902 h 1.19114 v 3.03486 q 0,0.63183 0.186541,0.89074 0.186383,0.25891 0.600638,0.25891 0.331435,0 0.580051,-0.16564 0.258909,-0.1658 0.549014,-0.53856 v -3.48031 h 1.191141 v 5.0857 h -0.97372 l -0.09343,-0.74585 h -0.03167 q -0.331436,0.39367 -0.724946,0.63184 -0.393668,0.23832 -0.911487,0.23832 z m 4.392271,-0.1251 v -5.0857 h 0.984013 l 0.08234,0.69406 h 0.04117 q 0.320984,-0.34188 0.693908,-0.58005 0.383218,-0.23832 0.859705,-0.23832 0.559307,0 0.890743,0.24861 0.341887,0.23833 0.517976,0.66287 0.362473,-0.39351 0.755983,-0.65242 0.403962,-0.25906 0.88045,-0.25906 0.807923,0 1.19114,0.52827 0.383217,0.52827 0.383217,1.49154 v 3.1902 h -1.201433 v -3.03486 q 0,-0.63183 -0.196834,-0.89074 -0.186383,-0.25891 -0.580052,-0.25891 -0.476488,0 -1.066832,0.63183 v 3.55268 h -1.19114 v -3.03486 q 0,-0.63183 -0.196835,-0.89074 -0.186383,-0.25891 -0.590344,-0.25891 -0.476488,0 -1.066833,0.63183 v 3.55268 z m 8.877179,0 v -5.0857 h 0.984013 l 0.08234,0.69406 h 0.04117 q 0.320984,-0.34188 0.693908,-0.58005 0.383217,-0.23832 0.859705,-0.23832 0.559307,0 0.890742,0.24861 0.341887,0.23833 0.517819,0.66287 0.362631,-0.39351 0.756141,-0.65242 0.403962,-0.25906 0.88045,-0.25906 0.807923,0 1.19114,0.52827 0.383217,0.52827 0.383217,1.49154 v 3.1902 h -1.201433 v -3.03486 q 0,-0.63183 -0.196835,-0.89074 -0.186383,-0.25891 -0.580051,-0.25891 -0.476488,0 -1.066832,0.63183 v 3.55268 h -1.191141 v -3.03486 q 0,-0.63183 -0.196834,-0.89074 -0.186383,-0.25891 -0.590345,-0.25891 -0.476487,0 -1.066832,0.63183 v 3.55268 z m 8.87718,0 v -5.0857 h 1.19114 v 5.0857 z m 0.60079,-5.97645 q -0.32114,0 -0.51797,-0.18638 -0.19684,-0.18638 -0.19684,-0.49723 0,-0.3004 0.19684,-0.48678 0.19683,-0.18639 0.51797,-0.18639 0.32099,0 0.51782,0.18639 0.19684,0.18638 0.19684,0.48678 0,0.31085 -0.19684,0.49723 -0.19683,0.18638 -0.51782,0.18638 z m 4.05039,6.10076 q -0.88029,0 -1.25322,-0.50753 -0.36247,-0.51797 -0.36247,-1.33619 v -2.42361 h -0.7251 v -0.8909 l 0.78717,-0.0523 0.14569,-1.38782 h 0.99431 v 1.38782 h 1.2947 v 0.94268 h -1.2947 v 2.42361 q 0,0.89075 0.71465,0.89075 0.1346,0 0.27965,-0.0317 0.14569,-0.0412 0.24862,-0.0824 l 0.20713,0.88029 q -0.20713,0.0729 -0.47649,0.1251 -0.25891,0.0618 -0.55931,0.0618 z m 3.94761,-0.1251 v -0.69407 q 0.92178,-0.89074 1.58465,-1.58465 0.67332,-0.70436 1.0358,-1.27396 0.36263,-0.58005 0.36263,-1.07728 0,-0.51782 -0.27966,-0.82851 -0.27965,-0.31085 -0.80792,-0.31085 -0.38322,0 -0.70436,0.21758 -0.31069,0.21758 -0.58005,0.51782 l -0.66287,-0.66288 q 0.45574,-0.48678 0.94252,-0.74569 0.48678,-0.26936 1.16011,-0.26936 0.95281,0 1.51212,0.54902 0.56976,0.54901 0.56976,1.47079 0,0.58005 -0.33144,1.19114 -0.32114,0.6008 -0.87,1.23247 -0.53872,0.63184 -1.19114,1.3259 0.25891,-0.0206 0.55931,-0.0412 0.30024,-0.0317 0.53856,-0.0317 h 1.61585 v 1.01505 z m 7.71708,0.1251 q -1.02535,0 -1.63644,-0.89075 -0.60079,-0.8909 -0.60079,-2.55837 0,-1.66762 0.60079,-2.52733 0.61109,-0.8597 1.63644,-0.8597 1.0255,0 1.62614,0.8597 0.61108,0.85971 0.61108,2.52733 0,1.66747 -0.61108,2.55837 -0.60064,0.89075 -1.62614,0.89075 z m 0,-0.93223 q 0.32114,0 0.56975,-0.23817 0.24846,-0.24861 0.38322,-0.79763 0.1441,-0.54885 0.1441,-1.48109 0,-0.93223 -0.1441,-1.47079 -0.1346,-0.53856 -0.38322,-0.75614 -0.24861,-0.22787 -0.56975,-0.22787 -0.3107,0 -0.55931,0.22787 -0.24862,0.21758 -0.39351,0.75614 -0.14569,0.53856 -0.14569,1.47079 0,0.93224 0.14569,1.48109 0.1441,0.54902 0.39351,0.79763 0.24861,0.23817 0.55931,0.23817 z m 3.20113,0.80792 v -0.69407 q 0.92193,-0.89074 1.58481,-1.58465 0.67316,-0.70436 1.03579,-1.27396 0.36247,-0.58005 0.36247,-1.07728 0,-0.51782 -0.27965,-0.82851 -0.27965,-0.31085 -0.80792,-0.31085 -0.38322,0 -0.70436,0.21758 -0.31069,0.21758 -0.5799,0.51782 l -0.66303,-0.66287 q 0.45575,-0.48678 0.94269,-0.74569 0.48678,-0.26936 1.15994,-0.26936 0.95298,0 1.51228,0.54901 0.5696,0.54901 0.5696,1.47079 0,0.58006 -0.33143,1.19114 -0.32098,0.6008 -0.87,1.23248 -0.53856,0.63183 -1.19114,1.32589 0.25891,-0.0206 0.55931,-0.0412 0.3004,-0.0317 0.53856,-0.0317 h 1.61585 v 1.01505 z m 7.56188,0.1251 q -0.79763,0 -1.34648,-0.26936 -0.53872,-0.27966 -0.90119,-0.64213 l 0.54901,-0.76643 q 0.30024,0.27965 0.67316,0.49707 0.37293,0.20713 0.87,0.20713 0.54902,0 0.91149,-0.33144 0.36263,-0.33143 0.36263,-0.93207 0,-0.5905 -0.33144,-0.91149 -0.33143,-0.32114 -0.88045,-0.32114 -0.32114,0 -0.53856,0.0934 -0.21758,0.0823 -0.51798,0.27965 l -0.5696,-0.36263 0.19684,-3.25228 h 3.52148 v 1.00476 h -2.48584 l -0.13461,1.5951 q 0.20713,-0.10293 0.40397,-0.15518 0.20712,-0.0618 0.46603,-0.0618 0.56976,0 1.0358,0.21758 0.46619,0.21742 0.74585,0.67316 0.28994,0.45574 0.28994,1.1704 0,0.71465 -0.33143,1.22217 -0.32115,0.50753 -0.84941,0.77689 -0.52812,0.26936 -1.13921,0.26936 z"
       id="path6168"
       aria-label="Asia Summit 2025" /><g
       id="g6178"
       transform="matrix(0.76711908,0,0,0.76711908,-1571.048,-2073.7915)"
       style="fill:#ffffff;fill-opacity:1"><path
         id="path6170"
         style="color:#000000;fill:#ffffff;fill-opacity:1;stroke-width:0.118337;stroke-linecap:square;-inkscape-stroke:none;paint-order:fill markers stroke"
         d="m 2054.5557,3033.3458 -5.2876,9.1581 c 3.9355,0.7917 7.0655,1.7869 7.7014,2.0004 0.01,-0.2331 0.045,-2.3166 0.045,-2.3166 0,0 0,-0.047 0.029,-0.072 0.033,-0.023 0.081,-0.023 0.081,-0.023 h 5e-4 c 0.4712,0.068 10.5269,1.5591 14.7655,4.0292 0.5233,0.3062 0.7827,0.6311 1.1054,0.9612 1.1719,1.2117 2.7189,6.2509 2.8861,7.29 0.01,0.041 -0.043,0.08 -0.066,0.1013 l -6e-4,-5e-4 c -0.1203,0.094 -0.2503,0.192 -0.3824,0.279 -1.003,0.6728 -3.3138,2.2898 -6.2781,2.0257 -2.6629,-0.2355 -6.1413,-1.7624 -10.3353,-4.5258 0.4125,0.9656 0.8182,1.9338 1.2247,2.9016 0.6074,0.3155 6.4695,3.3023 9.3628,3.2443 2.3305,-0.048 4.8228,-1.1848 5.8198,-1.7849 0,0 0.2191,-0.1299 0.3141,-0.058 0.106,0.081 0.077,0.2037 0.052,0.3297 -0.061,0.2861 -0.2011,0.8084 -0.2961,1.0563 l -0.081,0.2025 c -0.1142,0.3059 -0.2239,0.5893 -0.4351,0.7648 -0.5876,0.5343 -1.5249,0.9593 -2.9941,1.5979 -2.2704,0.9932 -5.9545,1.626 -9.3746,1.603 -1.2249,-0.027 -2.4081,-0.1624 -3.4474,-0.2842 -3.184,-0.3594 -5.4858,-0.6219 -5.964,2.2701 -0.3605,2.156 0.6878,4.5577 1.6108,6.1795 h 21.2648 l 10.6609,-18.465 -10.6609,-18.4651 z m 13.8126,13.0039 c -1.1494,-0.037 -2.246,0.3687 -3.0862,1.1534 -0.8399,0.7819 -1.3207,1.8482 -1.3637,2.9967 -0.079,2.3702 1.7812,4.3665 4.1491,4.4535 1.1545,0.039 2.2482,-0.3664 3.0887,-1.1555 0.8376,-0.7796 1.3182,-1.8456 1.3632,-2.9946 0.081,-2.3674 -1.7808,-4.3685 -4.1511,-4.4535 z m -0.035,1.2671 c 1.6564,0.059 2.9535,1.4503 2.8975,3.1063 -0.026,0.7986 -0.3621,1.5395 -0.9472,2.0882 -0.5862,0.5467 -1.3524,0.8317 -2.156,0.8067 -1.6526,-0.061 -2.9504,-1.4545 -2.8944,-3.1109 0.024,-0.8015 0.3682,-1.5423 0.9509,-2.0888 0.5826,-0.5465 1.345,-0.83 2.1492,-0.801 z m 0.4904,1.5058 c -0.7358,0 -1.3306,0.3968 -1.3306,0.8894 0,0.488 0.5948,0.8863 1.3306,0.8863 0.7356,0 1.3322,-0.3983 1.3322,-0.8863 0,-0.4926 -0.5961,-0.8894 -1.3322,-0.8894 z" /><g
         id="g6176"
         style="fill:#ffffff;fill-opacity:1"><path
           id="path6172"
           style="color:#000000;fill:#ffffff;fill-opacity:1;stroke-linecap:square;-inkscape-stroke:none;paint-order:fill markers stroke"
           d="m 2065.2268,3018.8496 c -0.5524,0.3257 -4.9323,2.9367 -8.8625,6.2533 0.8141,0.2959 1.6508,0.6519 2.4862,1.0692 3.1056,-2.3463 5.9133,-3.9574 5.9133,-3.9574 l 0.463,-0.2656 0.4626,0.2656 c 0,0 2.8022,1.6083 5.904,3.9507 0.8362,-0.4169 1.6743,-0.7727 2.4887,-1.0682 -3.9276,-3.3133 -8.3018,-5.9213 -8.8553,-6.2476 z m -15.2424,6.5779 v 5e-4 c -0.3493,0.8291 -1.128,2.7847 -1.6366,5.6074 -0.2124,1.1789 -0.3473,2.4476 -0.3618,3.7393 0,4e-4 0,6e-4 0,0 -3e-4,0.032 0,0.064 0,0.096 0,0.338 0.01,0.6764 0.023,1.0165 0,0.082 0.01,0.1628 0.012,0.2444 0.022,0.3435 0.056,0.6862 0.099,1.0289 0.01,0.065 0.014,0.1289 0.023,0.1933 0.055,0.3915 0.124,0.7807 0.2108,1.1673 0,0.014 0.01,0.027 0.01,0.041 0.094,0.4133 0.2026,0.8238 0.3375,1.2273 v 0 l 3.7445,-6.4849 c -10e-5,0 -3e-4,-1e-4 -5e-4,0 l 1.0433,-1.8071 h 2.0294 c 0,0 -0.01,0.01 -0.01,0.01 h 7.5437 c 0,0 -0.01,-0.01 -0.01,-0.01 h 0.02 c -2.0061,-2.2649 -4.8146,-3.7478 -7.4042,-4.6794 -2.6986,-0.9705 -4.7805,-1.2746 -5.6741,-1.3869 z m 30.4627,0 c -0.8934,0.1123 -2.9754,0.4164 -5.6735,1.3869 -2.5897,0.9316 -5.3982,2.4142 -7.4042,4.6794 h 0.015 c 0,0 0,0 -0.01,0.01 h 7.5639 c 0,0 0,0 -0.01,-0.01 h 2.0081 l 1.0444,1.8086 c 0,-5e-4 0,0 -0.01,0 l 3.745,6.4869 c 7e-4,0 9e-4,0 0,-0.01 v 0.01 c 0.2685,-0.8038 0.4448,-1.632 0.5596,-2.4665 0,-0.025 0.01,-0.05 0.01,-0.075 0.051,-0.3874 0.088,-0.7753 0.1116,-1.1638 0,-0.04 0,-0.08 0.01,-0.1199 0.021,-0.3932 0.03,-0.7847 0.025,-1.1751 -10e-5,-0.01 5e-4,-0.01 5e-4,-0.015 -2e-4,-10e-5 -4e-4,0 -5e-4,0 -0.015,-1.2901 -0.1496,-2.5569 -0.3618,-3.7347 -0.5087,-2.8227 -1.2876,-4.7795 -1.6371,-5.6094 z m 3.4752,5.3934 c 0.1498,0.8511 0.259,1.7516 0.3148,2.681 3.6572,1.5375 6.5288,3.2132 6.5288,3.2132 l 0.4609,0.2657 v 0.5333 c 0,0 0.01,3.2352 -0.4671,7.0967 0.7458,0.5021 1.4412,1.0347 2.0784,1.5735 0.036,0.03 0.067,0.061 0.1023,0.091 0.9147,-5.0765 0.9859,-10.2026 0.9932,-10.8448 -0.5646,-0.3191 -5.1097,-2.8625 -10.0113,-4.6096 z m -37.4147,0.01 c -4.8925,1.747 -9.4243,4.2822 -9.988,4.6008 0.01,0.6415 0.078,5.7575 0.9901,10.8288 0.029,-0.025 0.055,-0.05 0.084,-0.075 0.6426,-0.5434 1.3448,-1.0798 2.0981,-1.5855 -0.475,-3.8561 -0.4656,-7.0848 -0.4656,-7.0848 v -0.5333 l 0.4609,-0.2656 c 0,0 2.8605,-1.6696 6.5071,-3.2045 0.055,-0.9297 0.1638,-1.8296 0.3132,-2.681 z m 0.038,12.684 c -2.9659,0.6041 -5.6553,2.2954 -7.7576,4.0732 -2.1895,1.8514 -3.4928,3.5025 -4.037,4.2204 0.5433,0.717 1.8486,2.3689 4.039,4.2209 0.8834,0.7469 1.875,1.4725 2.9425,2.1141 -2e-4,8e-4 -4e-4,0 -5e-4,0 0.029,0.017 0.06,0.032 0.089,0.049 0.3013,0.1789 0.6081,0.3498 0.9214,0.5126 0.076,0.039 0.1515,0.078 0.2279,0.1163 0.2999,0.1502 0.6046,0.2904 0.9142,0.4227 0.08,0.034 0.1584,0.07 0.2387,0.1023 0.3405,0.1387 0.6864,0.2638 1.0372,0.3767 0.046,0.015 0.091,0.033 0.1369,0.047 0.4091,0.127 0.8227,0.24 1.2439,0.3261 l -4.7853,-8.2878 0.8961,-1.5519 c 4e-4,0 6e-4,0 10e-4,0 l 3.8877,-6.7334 c 0,3e-4 0,8e-4 0,0 z m 37.3409,0 4.7894,8.2951 -4.7863,8.2894 c 2.9631,-0.6051 5.6493,-2.2952 7.7504,-4.0715 2.1905,-1.852 3.4957,-3.5041 4.0391,-4.221 -0.5442,-0.7179 -1.8476,-2.369 -4.037,-4.2204 -2.1019,-1.7773 -4.7905,-3.4664 -7.7556,-4.0716 z m 9.001,13.8917 c -0.017,0.015 -0.032,0.029 -0.05,0.044 -0.6487,0.5485 -1.3594,1.0896 -2.1208,1.5994 0.5218,4.0147 0.5095,7.4419 0.5095,7.4419 v 0.5333 l -0.461,0.2672 c 0,0 -2.8837,1.6832 -6.553,3.2231 -0.064,0.8314 -0.1687,1.6391 -0.3065,2.4039 -0.018,0.1017 -0.041,0.1949 -0.06,0.2951 4.9311,-1.7477 9.5201,-4.3177 10.0877,-4.6385 -0.01,-0.6581 -0.074,-5.9894 -1.0459,-11.1693 z m -55.3253,0.016 c -0.9688,5.1749 -1.0354,10.4964 -1.0428,11.1538 0.5666,0.3203 5.142,2.8816 10.0639,4.6292 -0.018,-0.097 -0.041,-0.1872 -0.058,-0.2858 -0.1383,-0.7678 -0.243,-1.5789 -0.307,-2.4138 -3.6584,-1.5373 -6.5309,-3.2137 -6.5309,-3.2137 l -0.4609,-0.2672 v -0.5333 c 0,0 -0.013,-3.4201 0.5074,-7.4295 -0.7687,-0.5135 -1.4858,-1.0587 -2.1399,-1.6118 -0.011,-0.01 -0.021,-0.019 -0.032,-0.028 z m 11.1357,6.4094 c -0.9567,2.8686 -0.8361,6.0401 -0.3483,8.7473 0.5085,2.8223 1.2871,4.7775 1.6366,5.6074 0.8938,-0.1124 2.9755,-0.416 5.6736,-1.3865 2.588,-0.9309 5.3943,-2.4121 7.4001,-4.6746 h -9.5736 z m 33.0368,0 -4.7889,8.2946 h -9.5725 c 2.0055,2.2632 4.8117,3.745 7.4001,4.6762 2.6992,0.9712 4.7832,1.2748 5.6756,1.387 0.3495,-0.83 1.1264,-2.7852 1.635,-5.6074 0.4881,-2.7083 0.6087,-5.881 -0.3493,-8.7504 z m -23.179,13.7708 c -0.7639,0.3677 -1.5278,0.6862 -2.2706,0.9534 -0.082,0.029 -0.1591,0.052 -0.2403,0.08 4.0076,3.4442 8.6145,6.1793 9.1818,6.5138 0.5684,-0.3352 5.1698,-3.0674 9.1752,-6.5086 -0.086,-0.03 -0.1684,-0.054 -0.2553,-0.085 -0.7384,-0.2657 -1.4982,-0.5819 -2.2577,-0.9467 -3.2189,2.4658 -6.1996,4.1749 -6.1996,4.1749 l -0.4626,0.2672 -0.463,-0.2672 c 0,0 -2.9859,-1.7123 -6.2079,-4.1816 z" /><path
           id="path6174"
           style="color:#000000;fill:#ffffff;fill-opacity:1;stroke-linecap:square;-inkscape-stroke:none;paint-order:fill markers stroke"
           d="m 2065.2268,3024.1211 c -0.3873,0.2296 -2.3431,1.4034 -4.609,3.0484 1.7119,1.0742 3.3297,2.4436 4.5972,4.1992 1.2705,-1.7603 2.8934,-3.1318 4.6105,-4.207 -2.2615,-1.6411 -4.2118,-2.8114 -4.5987,-3.0406 z m 19.0294,11.4024 c -0.075,2.0139 -0.4523,4.0927 -1.3364,6.0627 2.2194,0.2263 4.269,0.9808 6.0953,1.9699 0.2884,-2.7778 0.3255,-5.0495 0.3307,-5.4984 -0.3987,-0.2245 -2.4638,-1.37 -5.0896,-2.5342 z m -38.0809,0.01 c -2.6156,1.1609 -4.6703,2.3015 -5.0679,2.5254 0,0.4484 0.042,2.7152 0.3297,5.4886 1.8213,-0.9831 3.8637,-1.7323 6.0746,-1.958 -0.8833,-1.9674 -1.2604,-4.044 -1.3364,-6.056 z m 42.7979,24.5494 c -1.8161,0.9774 -3.8515,1.7214 -6.0534,1.9462 0.9388,2.0909 1.3067,4.3049 1.3467,6.4332 2.6202,-1.1615 4.6801,-2.3038 5.0793,-2.5286 -0.01,-0.4659 -0.05,-2.9161 -0.3726,-5.8508 z m -47.4943,0.011 c -0.3216,2.93 -0.3662,5.3746 -0.3715,5.8399 0.3971,0.2237 2.4472,1.3606 5.0581,2.5193 0.041,-2.1255 0.4089,-4.3363 1.3462,-6.4239 -2.1937,-0.224 -4.2218,-0.9634 -6.0328,-1.9353 z m 23.7361,12.1553 c -1.3349,1.8495 -3.0577,3.2707 -4.8705,4.3677 2.3792,1.7491 4.4798,3.0151 4.8823,3.2536 0.402,-0.2382 2.4967,-1.5011 4.8716,-3.2464 -1.8179,-1.0979 -3.5457,-2.5213 -4.8834,-4.3749 z" /></g></g><g
       aria-label="Faridabad, August 29 - 31"
       id="g6222"
       style="font-size:4.42894px;line-height:0.75;font-family:'Source Sans Pro';-inkscape-font-specification:'Source Sans Pro';letter-spacing:0.0622817px;word-spacing:0px;fill:#ffffff;fill-opacity:1;stroke-width:1.84532;stroke-linecap:round;stroke-linejoin:round;paint-order:markers fill stroke"
       transform="matrix(1.4607479,0,0,1.4607479,34.946179,141.22792)"><path
         d="m 10.0562,99.314407 v -2.905384 h 1.674139 v 0.310026 h -1.306537 v 0.983224 h 1.107235 v 0.310026 h -1.107235 v 1.302108 z"
         id="path6180"
         style="fill:#ffffff;fill-opacity:1;stroke-width:1.84532" /><path
         d="m 12.6164,99.367555 q -0.270166,0 -0.451752,-0.159442 -0.177158,-0.163871 -0.177158,-0.451752 0,-0.354315 0.314455,-0.540331 0.318884,-0.190444 1.005369,-0.265736 0,-0.137297 -0.03986,-0.261308 -0.03543,-0.12401 -0.132868,-0.199302 -0.09301,-0.07972 -0.270166,-0.07972 -0.186015,0 -0.349886,0.07086 -0.163871,0.07086 -0.29231,0.159442 l -0.141726,-0.252449 q 0.150584,-0.09744 0.367602,-0.186016 0.221447,-0.09301 0.478326,-0.09301 0.394175,0 0.571333,0.243592 0.177157,0.239163 0.177157,0.642196 v 1.319824 h -0.301168 l -0.031,-0.256878 h -0.01329 q -0.150584,0.12401 -0.33217,0.217018 -0.177158,0.09301 -0.380889,0.09301 z m 0.106294,-0.29231 q 0.155013,0 0.29231,-0.07529 0.137298,-0.07529 0.29231,-0.212589 v -0.597907 q -0.535901,0.06643 -0.752919,0.199302 -0.212589,0.132868 -0.212589,0.341028 0,0.181587 0.110723,0.265737 0.110724,0.07972 0.270165,0.07972 z"
         id="path6182"
         style="fill:#ffffff;fill-opacity:1;stroke-width:1.84532" /><path
         d="m 14.414825,99.314407 v -2.152464 h 0.301167 l 0.031,0.389746 h 0.01329 q 0.110723,-0.203731 0.270165,-0.323312 0.159442,-0.119582 0.341029,-0.119582 0.128439,0 0.230304,0.04429 l -0.07086,0.318883 q -0.05315,-0.01772 -0.09744,-0.02657 -0.04429,-0.0089 -0.110724,-0.0089 -0.137297,0 -0.287881,0.110723 -0.146155,0.110724 -0.256878,0.385318 v 1.381829 z"
         id="path6184"
         style="fill:#ffffff;fill-opacity:1;stroke-width:1.84532" /><path
         d="m 16.013949,99.314407 v -2.152464 h 0.363173 v 2.152464 z m 0.186015,-2.595358 q -0.106294,0 -0.177157,-0.06201 -0.06643,-0.06643 -0.06643,-0.177157 0,-0.106295 0.06643,-0.172729 0.07086,-0.06643 0.177157,-0.06643 0.106295,0 0.172729,0.06643 0.07086,0.06643 0.07086,0.172729 0,0.110723 -0.07086,0.177157 -0.06643,0.06201 -0.172729,0.06201 z"
         id="path6186"
         style="fill:#ffffff;fill-opacity:1;stroke-width:1.84532" /><path
         d="m 17.900956,99.367555 q -0.403034,0 -0.646626,-0.29231 -0.243591,-0.296739 -0.243591,-0.832641 0,-0.349886 0.128439,-0.602336 0.132868,-0.256878 0.345457,-0.394176 0.217018,-0.137297 0.46061,-0.137297 0.186015,0 0.323313,0.06643 0.137297,0.06643 0.279023,0.181587 l -0.01772,-0.367602 v -0.828212 h 0.367602 v 3.153405 h -0.301168 l -0.031,-0.252449 h -0.01329 q -0.124011,0.12401 -0.29231,0.217018 -0.1683,0.08858 -0.358744,0.08858 z m 0.07972,-0.305597 q 0.283453,0 0.549189,-0.296739 v -1.124951 q -0.137297,-0.12401 -0.265736,-0.172729 -0.124011,-0.05315 -0.256879,-0.05315 -0.172729,0 -0.314455,0.106295 -0.137297,0.101865 -0.221447,0.287881 -0.08415,0.181586 -0.08415,0.429607 0,0.385318 0.155012,0.606765 0.155013,0.217018 0.438465,0.217018 z"
         id="path6188"
         style="fill:#ffffff;fill-opacity:1;stroke-width:1.84532" /><path
         d="m 20.182137,99.367555 q -0.270165,0 -0.451752,-0.159442 -0.177157,-0.163871 -0.177157,-0.451752 0,-0.354315 0.314454,-0.540331 0.318884,-0.190444 1.00537,-0.265736 0,-0.137297 -0.03986,-0.261308 -0.03543,-0.12401 -0.132868,-0.199302 -0.09301,-0.07972 -0.270165,-0.07972 -0.186016,0 -0.349887,0.07086 -0.16387,0.07086 -0.29231,0.159442 l -0.141726,-0.252449 q 0.150584,-0.09744 0.367602,-0.186016 0.221447,-0.09301 0.478326,-0.09301 0.394175,0 0.571333,0.243592 0.177158,0.239163 0.177158,0.642196 v 1.319824 h -0.301168 l -0.031,-0.256878 h -0.01329 q -0.150584,0.12401 -0.33217,0.217018 -0.177158,0.09301 -0.380889,0.09301 z m 0.106295,-0.29231 q 0.155012,0 0.29231,-0.07529 0.137297,-0.07529 0.29231,-0.212589 v -0.597907 q -0.535902,0.06643 -0.75292,0.199302 -0.212589,0.132868 -0.212589,0.341028 0,0.181587 0.110723,0.265737 0.110724,0.07972 0.270166,0.07972 z"
         id="path6190"
         style="fill:#ffffff;fill-opacity:1;stroke-width:1.84532" /><path
         d="m 22.932784,99.367555 q -0.150584,0 -0.314455,-0.07086 -0.159442,-0.07529 -0.301168,-0.203732 h -0.01329 l -0.031,0.221447 h -0.29231 v -3.153405 h 0.363173 v 0.859215 l -0.0089,0.389746 q 0.146155,-0.128439 0.318884,-0.212589 0.177157,-0.08858 0.354315,-0.08858 0.420749,0 0.637767,0.296739 0.217018,0.296739 0.217018,0.797209 0,0.367602 -0.132868,0.62891 -0.128439,0.261307 -0.341028,0.398604 -0.208161,0.137298 -0.456181,0.137298 z m -0.06201,-0.305597 q 0.265736,0 0.438465,-0.225876 0.177157,-0.230305 0.177157,-0.62891 0,-0.354315 -0.132868,-0.571333 -0.128439,-0.221447 -0.434036,-0.221447 -0.137297,0 -0.279023,0.07529 -0.141726,0.07529 -0.296739,0.217018 v 1.12938 q 0.141726,0.12401 0.279023,0.177157 0.141726,0.04872 0.248021,0.04872 z"
         id="path6192"
         style="fill:#ffffff;fill-opacity:1;stroke-width:1.84532" /><path
         d="m 24.926081,99.367555 q -0.270165,0 -0.451752,-0.159442 -0.177157,-0.163871 -0.177157,-0.451752 0,-0.354315 0.314454,-0.540331 0.318884,-0.190444 1.00537,-0.265736 0,-0.137297 -0.03986,-0.261308 -0.03543,-0.12401 -0.132868,-0.199302 -0.09301,-0.07972 -0.270165,-0.07972 -0.186016,0 -0.349886,0.07086 -0.163871,0.07086 -0.29231,0.159442 L 24.39018,97.387817 q 0.150584,-0.09744 0.367602,-0.186016 0.221447,-0.09301 0.478326,-0.09301 0.394176,0 0.571333,0.243592 0.177158,0.239163 0.177158,0.642196 v 1.319824 H 25.68343 l -0.031,-0.256878 h -0.01329 q -0.150584,0.12401 -0.332171,0.217018 -0.177158,0.09301 -0.380889,0.09301 z m 0.106295,-0.29231 q 0.155013,0 0.29231,-0.07529 0.137297,-0.07529 0.29231,-0.212589 v -0.597907 q -0.535902,0.06643 -0.75292,0.199302 -0.212589,0.132868 -0.212589,0.341028 0,0.181587 0.110723,0.265737 0.110724,0.07972 0.270166,0.07972 z"
         id="path6194"
         style="fill:#ffffff;fill-opacity:1;stroke-width:1.84532" /><path
         d="m 27.45971,99.367555 q -0.403034,0 -0.646625,-0.29231 -0.243592,-0.296739 -0.243592,-0.832641 0,-0.349886 0.128439,-0.602336 0.132869,-0.256878 0.345458,-0.394176 0.217018,-0.137297 0.460609,-0.137297 0.186016,0 0.323313,0.06643 0.137297,0.06643 0.279023,0.181587 l -0.01772,-0.367602 v -0.828212 h 0.367602 v 3.153405 H 28.15505 l -0.031,-0.252449 h -0.01329 q -0.12401,0.12401 -0.29231,0.217018 -0.1683,0.08858 -0.358744,0.08858 z m 0.07972,-0.305597 q 0.283452,0 0.549188,-0.296739 v -1.124951 q -0.137297,-0.12401 -0.265736,-0.172729 -0.12401,-0.05315 -0.256878,-0.05315 -0.172729,0 -0.314455,0.106295 -0.137297,0.101865 -0.221447,0.287881 -0.08415,0.181586 -0.08415,0.429607 0,0.385318 0.155013,0.606765 0.155013,0.217018 0.438465,0.217018 z"
         id="path6196"
         style="fill:#ffffff;fill-opacity:1;stroke-width:1.84532" /><path
         d="m 29.178418,100.06733 -0.08858,-0.212592 q 0.190444,-0.08415 0.296739,-0.225876 0.106294,-0.137297 0.101865,-0.314455 -0.0089,0.0044 -0.02214,0.0044 -0.01329,0 -0.02214,0 -0.106295,0 -0.186016,-0.062 -0.07529,-0.06643 -0.07529,-0.190444 0,-0.119582 0.07972,-0.186016 0.07972,-0.07086 0.190445,-0.07086 0.141726,0 0.221447,0.115153 0.08415,0.115152 0.08415,0.314454 0,0.283453 -0.155013,0.496042 -0.155013,0.217018 -0.425178,0.332174 z"
         id="path6198"
         style="fill:#ffffff;fill-opacity:1;stroke-width:1.84532" /><path
         d="m 31.893916,97.688986 -0.137297,0.442894 h 0.872501 l -0.137297,-0.442894 q -0.07972,-0.243591 -0.150584,-0.482754 -0.07086,-0.243592 -0.141726,-0.496041 h -0.01772 q -0.06643,0.252449 -0.137297,0.496041 -0.07086,0.239163 -0.150584,0.482754 z m -0.885788,1.625421 0.983225,-2.905384 h 0.41632 l 0.983225,2.905384 h -0.394176 l -0.274594,-0.885788 h -1.058517 l -0.279023,0.885788 z"
         id="path6200"
         style="fill:#ffffff;fill-opacity:1;stroke-width:1.84532" /><path
         d="m 34.431975,99.367555 q -0.341028,0 -0.50047,-0.212589 -0.159442,-0.217019 -0.159442,-0.62891 v -1.364113 h 0.367602 v 1.315395 q 0,0.301168 0.09301,0.438465 0.09744,0.137297 0.310026,0.137297 0.168299,0 0.296739,-0.08415 0.132868,-0.08858 0.283452,-0.279023 v -1.527984 h 0.363173 v 2.152464 h -0.301168 l -0.031,-0.336599 h -0.01329 q -0.150584,0.177158 -0.318884,0.283452 -0.1683,0.106295 -0.389747,0.106295 z"
         id="path6202"
         style="fill:#ffffff;fill-opacity:1;stroke-width:1.84532" /><path
         d="m 37.00104,100.30649 q -0.394175,0 -0.642196,-0.15058 -0.248021,-0.15059 -0.248021,-0.429611 0,-0.137297 0.08415,-0.265737 0.08415,-0.12401 0.230305,-0.221447 V 99.2214 q -0.07972,-0.04872 -0.137297,-0.137298 -0.05315,-0.08858 -0.05315,-0.212589 0,-0.137297 0.07529,-0.239162 0.07529,-0.101866 0.159441,-0.159442 v -0.01772 q -0.106294,-0.08858 -0.194873,-0.239163 -0.08415,-0.150584 -0.08415,-0.341028 0,-0.234734 0.110724,-0.407463 0.110723,-0.172728 0.296739,-0.265736 0.186015,-0.09301 0.403033,-0.09301 0.08858,0 0.1683,0.01772 0.07972,0.01329 0.137297,0.03543 h 0.748491 v 0.279023 h -0.442894 q 0.07529,0.07086 0.12401,0.190444 0.05315,0.115153 0.05315,0.25245 0,0.230305 -0.106294,0.398604 -0.106295,0.1683 -0.283452,0.261308 -0.177158,0.08858 -0.398605,0.08858 -0.172728,0 -0.323312,-0.07529 -0.05758,0.04872 -0.09744,0.110723 -0.03986,0.05758 -0.03986,0.146155 0,0.101866 0.07972,0.1683 0.08415,0.06643 0.301168,0.06643 h 0.416321 q 0.376459,0 0.562475,0.12401 0.190444,0.119582 0.190444,0.389747 0,0.199302 -0.132868,0.367602 -0.132868,0.168295 -0.37646,0.270165 -0.243591,0.10629 -0.580191,0.10629 z m 0,-1.917731 q 0.186016,0 0.318884,-0.137297 0.137297,-0.141726 0.137297,-0.37646 0,-0.234734 -0.132868,-0.367602 -0.132868,-0.132868 -0.323313,-0.132868 -0.190444,0 -0.323312,0.132868 -0.132869,0.132868 -0.132869,0.367602 0,0.234734 0.132869,0.37646 0.137297,0.137297 0.323312,0.137297 z m 0.05315,1.665281 q 0.310026,0 0.496042,-0.137297 0.186015,-0.132868 0.186015,-0.301168 0,-0.150584 -0.115152,-0.20816 -0.110724,-0.05758 -0.318884,-0.05758 H 36.93018 q -0.062,0 -0.137297,-0.0089 -0.07086,-0.0089 -0.141726,-0.02657 -0.115153,0.08415 -0.1683,0.177158 -0.05315,0.09301 -0.05315,0.186015 0,0.172729 0.163871,0.274595 0.168299,0.101867 0.460609,0.101867 z"
         id="path6204"
         style="fill:#ffffff;fill-opacity:1;stroke-width:1.84532" /><path
         d="m 39.198069,99.367555 q -0.341028,0 -0.50047,-0.212589 -0.159442,-0.217019 -0.159442,-0.62891 v -1.364113 h 0.367602 v 1.315395 q 0,0.301168 0.09301,0.438465 0.09744,0.137297 0.310026,0.137297 0.1683,0 0.296739,-0.08415 0.132868,-0.08858 0.283452,-0.279023 v -1.527984 h 0.363173 v 2.152464 h -0.301168 l -0.031,-0.336599 H 39.9067 q -0.150584,0.177158 -0.318884,0.283452 -0.1683,0.106295 -0.389747,0.106295 z"
         id="path6206"
         style="fill:#ffffff;fill-opacity:1;stroke-width:1.84532" /><path
         d="m 41.603264,99.367555 q -0.230305,0 -0.438465,-0.08415 -0.208161,-0.08858 -0.363174,-0.212589 l 0.181587,-0.243592 q 0.141726,0.110723 0.29231,0.186015 0.150584,0.07086 0.341028,0.07086 0.21259,0 0.318884,-0.09744 0.106295,-0.101866 0.106295,-0.239163 0,-0.110723 -0.07529,-0.186015 -0.07086,-0.07529 -0.186016,-0.124011 -0.110723,-0.05315 -0.230305,-0.09744 -0.150584,-0.05758 -0.296739,-0.12844 -0.146155,-0.07529 -0.239162,-0.190444 -0.09301,-0.119581 -0.09301,-0.301168 0,-0.261307 0.194873,-0.434036 0.199302,-0.177158 0.549189,-0.177158 0.199302,0 0.372031,0.07086 0.172728,0.07086 0.296739,0.172729 l -0.177158,0.230305 q -0.110723,-0.08415 -0.230305,-0.137297 -0.119581,-0.05315 -0.261307,-0.05315 -0.203731,0 -0.301168,0.09301 -0.09301,0.09301 -0.09301,0.217018 0,0.101866 0.06643,0.1683 0.06643,0.06201 0.172729,0.110723 0.106294,0.04429 0.225876,0.09301 0.155013,0.05758 0.305597,0.132868 0.150584,0.07086 0.24802,0.194874 0.101866,0.119581 0.101866,0.323312 0,0.172729 -0.09301,0.318884 -0.08858,0.146155 -0.265736,0.234734 -0.172729,0.08858 -0.429607,0.08858 z"
         id="path6208"
         style="fill:#ffffff;fill-opacity:1;stroke-width:1.84532" /><path
         d="m 43.547846,99.367555 q -0.345458,0 -0.482755,-0.199303 -0.132868,-0.199302 -0.132868,-0.518186 v -1.191384 h -0.318884 v -0.274595 l 0.3366,-0.02214 0.04429,-0.602336 h 0.305597 v 0.602336 h 0.580191 v 0.296739 h -0.580191 v 1.195813 q 0,0.199303 0.07086,0.310026 0.07529,0.106295 0.261308,0.106295 0.05758,0 0.12401,-0.01772 0.06643,-0.02214 0.119581,-0.03986 l 0.07086,0.274595 q -0.08858,0.031 -0.194873,0.05315 -0.101866,0.02657 -0.203731,0.02657 z"
         id="path6210"
         style="fill:#ffffff;fill-opacity:1;stroke-width:1.84532" /><path
         d="m 45.191534,99.314407 v -0.217018 q 0.425178,-0.425178 0.721917,-0.744062 0.296739,-0.323312 0.451752,-0.580191 0.155013,-0.261307 0.155013,-0.487183 0,-0.243592 -0.132868,-0.398605 -0.132868,-0.155013 -0.403034,-0.155013 -0.177157,0 -0.327741,0.101866 -0.150584,0.09744 -0.274594,0.239163 l -0.208161,-0.20816 q 0.177158,-0.194874 0.37646,-0.310026 0.203732,-0.119582 0.478326,-0.119582 0.394176,0 0.620051,0.230305 0.225876,0.225876 0.225876,0.602336 0,0.265737 -0.150584,0.540331 -0.146155,0.270165 -0.407462,0.571333 -0.256879,0.296739 -0.593478,0.646625 0.115152,-0.0089 0.239163,-0.01772 0.12401,-0.0089 0.234734,-0.0089 h 0.819353 v 0.314454 z"
         id="path6212"
         style="fill:#ffffff;fill-opacity:1;stroke-width:1.84532" /><path
         d="m 47.796028,97.343529 q 0,0.274594 0.12844,0.438465 0.132868,0.159442 0.394175,0.159442 0.141726,0 0.296739,-0.08858 0.159442,-0.08858 0.296739,-0.287881 -0.03543,-0.411891 -0.194873,-0.62448 -0.159442,-0.217018 -0.429607,-0.217018 -0.203731,0 -0.349886,0.172728 -0.141727,0.1683 -0.141727,0.447324 z m 0.389747,2.024026 q -0.225876,0 -0.398604,-0.08415 -0.1683,-0.08858 -0.283453,-0.212589 l 0.203732,-0.230305 q 0.08858,0.101865 0.20816,0.163871 0.12401,0.062 0.256878,0.062 0.199303,0 0.367602,-0.115153 0.1683,-0.115152 0.270166,-0.380889 0.106294,-0.265736 0.110723,-0.717488 -0.132868,0.1683 -0.310026,0.265737 -0.177157,0.09744 -0.354315,0.09744 -0.363173,0 -0.58462,-0.217018 Q 47.455,97.777565 47.455,97.343529 q 0,-0.270165 0.115153,-0.473896 0.115152,-0.203732 0.301167,-0.318884 0.190445,-0.115153 0.416321,-0.115153 0.279023,0 0.50047,0.150584 0.221447,0.150584 0.345457,0.451752 0.12844,0.301168 0.12844,0.757349 0,0.566904 -0.155013,0.912362 -0.150584,0.345457 -0.394176,0.504899 -0.243592,0.155013 -0.527044,0.155013 z"
         id="path6214"
         style="fill:#ffffff;fill-opacity:1;stroke-width:1.84532" /><path
         d="m 50.670965,98.34447 v -0.279024 h 1.018657 v 0.279024 z"
         id="path6216"
         style="fill:#ffffff;fill-opacity:1;stroke-width:1.84532" /><path
         d="m 53.922365,99.367555 q -0.336599,0 -0.562475,-0.119582 -0.225876,-0.12401 -0.367602,-0.279023 l 0.186015,-0.239163 q 0.128439,0.132868 0.301168,0.234734 0.172729,0.101866 0.420749,0.101866 0.256879,0 0.42075,-0.141726 0.16387,-0.141726 0.16387,-0.37646 0,-0.1683 -0.08858,-0.29231 -0.08415,-0.12844 -0.283453,-0.199303 -0.194873,-0.07086 -0.531472,-0.07086 v -0.279023 q 0.301168,0 0.473896,-0.07086 0.177158,-0.07086 0.25245,-0.190444 0.07529,-0.119582 0.07529,-0.265737 0,-0.20816 -0.132868,-0.327741 -0.12844,-0.119582 -0.354316,-0.119582 -0.177157,0 -0.327741,0.07972 -0.146155,0.07972 -0.274594,0.208161 l -0.194874,-0.230305 q 0.163871,-0.155013 0.363173,-0.25245 0.199303,-0.101866 0.447323,-0.101866 0.367602,0 0.606765,0.190445 0.239163,0.186015 0.239163,0.527044 0,0.256878 -0.141726,0.420749 -0.141726,0.163871 -0.372031,0.25245 v 0.01771 q 0.256878,0.05758 0.434036,0.243592 0.177157,0.181587 0.177157,0.473897 0,0.24802 -0.12401,0.429607 -0.12401,0.181586 -0.336599,0.279023 -0.20816,0.09744 -0.469468,0.09744 z"
         id="path6218"
         style="fill:#ffffff;fill-opacity:1;stroke-width:1.84532" /><path
         d="m 55.490487,99.314407 v -0.301168 h 0.646626 v -2.081601 h -0.513757 v -0.234734 q 0.194873,-0.03543 0.336599,-0.08415 0.146155,-0.05315 0.261307,-0.12401 h 0.279024 v 2.524495 h 0.58462 v 0.301168 z"
         id="path6220"
         style="fill:#ffffff;fill-opacity:1;stroke-width:1.84532" /></g></g></svg>
