<?xml version="1.0" encoding="UTF-8" standalone="no"?>
<!-- Created with Inkscape (http://www.inkscape.org/) -->

<svg
   width="253.9866"
   height="379.11115"
   viewBox="0 0 67.200619 100.30649"
   version="1.1"
   id="svg1"
   xml:space="preserve"
   xmlns="http://www.w3.org/2000/svg"
   xmlns:svg="http://www.w3.org/2000/svg"><defs
     id="defs1" /><g
     id="g4890"
     transform="translate(-4.2290563e-5)"
     style="fill:#ffffff"><g
       id="g4832"
       transform="matrix(1.5618319,0,0,1.5618319,-205.5371,-56.1346)"
       style="fill:#ffffff;fill-opacity:1;stroke-width:0.948863"><path
         d="m 149.61174,83.509592 c -1.0465,0 -1.62214,0.884745 -1.62214,1.496423 v 0.785226 c 0,0.900771 0.73595,1.458912 1.41845,1.458912 h 2.39575 c 0.30183,0 0.36502,0.1976 0.36502,0.364318 v 0.50674 c 0,0.05376 -0.0109,0.540461 -0.36502,0.540461 h -3.26752 c -0.32471,0 -0.55934,0.225902 -0.55934,0.535041 v 0.14007 c 0,0.307957 0.23463,0.532447 0.55934,0.532447 h 3.44513 c 0.90054,0 1.48164,-0.626535 1.48164,-1.597126 v -0.847247 c 0,-0.91138 -0.65484,-1.318856 -1.30494,-1.318856 h -2.35731 c -0.35488,0 -0.51569,-0.266224 -0.51569,-0.454399 v -0.467831 c 0,-0.294525 0.19688,-0.465249 0.54117,-0.465249 h 2.6094 c 0.31999,0 0.56075,-0.229909 0.56075,-0.533859 v -0.139828 c 0,-0.305133 -0.24477,-0.535284 -0.57159,-0.535284 h -2.81295 z"
         id="path4810"
         style="fill:#ffffff;fill-opacity:1;stroke-width:0.127575" /><path
         d="m 159.40773,83.509592 c -0.30937,0 -0.55861,0.251367 -0.55861,0.560748 v 4.011706 c 0,0.321402 -0.26222,0.579612 -0.57961,0.579612 h -1.82112 c -0.31856,0 -0.57937,-0.25821 -0.57937,-0.579612 V 84.07034 c 0,-0.309381 -0.25137,-0.560748 -0.56051,-0.560748 h -0.17614 c -0.31386,0 -0.56075,0.247602 -0.56075,0.560748 v 4.163634 c 0,0.969395 0.76283,1.672552 1.81359,1.672552 h 1.9475 c 1.04934,0 1.81171,-0.702929 1.81171,-1.672552 V 84.07034 c 0,-0.313146 -0.24595,-0.560748 -0.55933,-0.560748 h -0.17733 z"
         id="path4812"
         style="fill:#ffffff;fill-opacity:1;stroke-width:0.127575" /><path
         d="m 162.89401,83.509592 c -1.04603,0 -1.62334,0.884745 -1.62334,1.496423 v 0.785226 c 0,0.900771 0.73736,1.458912 1.42032,1.458912 h 2.39508 c 0.30231,0 0.36575,0.1976 0.36575,0.364318 v 0.50674 c 0,0.05376 -0.0109,0.540461 -0.36575,0.540461 h -3.269 c -0.32329,0 -0.55933,0.225902 -0.55933,0.535041 v 0.14007 c 0,0.307957 0.23604,0.532447 0.55933,0.532447 h 3.44634 c 0.90079,0 1.48446,-0.626535 1.48446,-1.597126 v -0.847247 c 0,-0.91138 -0.65672,-1.318856 -1.30683,-1.318856 h -2.35731 c -0.35583,0 -0.51618,-0.266224 -0.51618,-0.454399 v -0.467831 c 0,-0.294525 0.1969,-0.465249 0.54118,-0.465249 h 2.61087 c 0.31928,0 0.5591,-0.229909 0.5591,-0.533859 v -0.139828 c 0,-0.305133 -0.24454,-0.535284 -0.57277,-0.535284 h -2.81175 z"
         id="path4814"
         style="fill:#ffffff;fill-opacity:1;stroke-width:0.127575" /><path
         d="m 167.85789,84.044701 v 5.291665 c 0,0.303722 0.22919,0.532447 0.53291,0.532447 h 4.21688 c 0.32471,0 0.55934,-0.22449 0.55934,-0.532447 v -0.140069 c 0,-0.30914 -0.23463,-0.535042 -0.55934,-0.535042 h -3.45361 V 87.31407 h 2.53061 c 0.324,0 0.55934,-0.227314 0.55934,-0.535284 v -0.139827 c 0,-0.309382 -0.23534,-0.533859 -0.55934,-0.533859 h -2.53061 v -1.387519 h 3.27815 c 0.32353,0 0.55933,-0.223066 0.55933,-0.533859 v -0.139828 c 0,-0.309382 -0.2358,-0.535311 -0.55933,-0.535284 l -4.02918,4.04e-4 c -0.31009,0 -0.54518,0.230554 -0.54518,0.535687 z"
         id="path4816"
         style="fill:#ffffff;fill-opacity:1;stroke-width:0.127575" /><g
         transform="matrix(0.23581107,0,0,0.23581107,16.716425,-9.326478)"
         stroke-width="0"
         id="g4826"
         style="fill:#ffffff;fill-opacity:1"><path
           d="m 491.25,404.37 c -2.241,0 -4.065,1.744 -4.065,3.894 v 8.461 c 0,2.184 1.765,3.963 3.929,3.963 h 5.473 c 2.164,0 3.929,-1.779 3.929,-3.963 v -8.461 c 0,-2.149 -1.825,-3.894 -4.065,-3.894 z m -1.184,12.019 v -7.726 c 0,-0.906 0.744,-1.647 1.654,-1.647 h 4.264 c 0.89,0 1.648,0.758 1.648,1.647 v 7.726 c 0,0.912 -0.738,1.653 -1.648,1.653 h -4.296 c -0.912,0 -1.622,-0.725 -1.622,-1.653 z"
           id="path4818"
           style="fill:#ffffff;fill-opacity:1;stroke-width:0" /><path
           d="m 512.91,404.27 c -1.578,0 -2.768,0.564 -3.723,1.026 -0.582,0.279 -1.086,0.52 -1.477,0.52 -0.177,0 -0.328,-0.08 -0.408,-0.211 l -0.364,-0.696 c -0.091,-0.183 -0.456,-0.541 -0.907,-0.541 h -0.541 c -0.52,0 -0.936,0.467 -0.936,1.037 v 21.461 c 0,0.673 0.531,1.203 1.203,1.203 h 0.468 c 0.667,0 1.209,-0.536 1.209,-1.203 v -7.121 c 0,-0.211 0.137,-0.439 0.276,-0.439 0.391,0 0.895,0.229 1.477,0.496 0.955,0.439 2.145,0.98 3.723,0.98 h 0.505 c 2.794,0 4.532,-1.597 4.532,-4.162 v -8.192 c 0,-2.526 -1.775,-4.157 -4.532,-4.157 h -0.505 z m -5.475,11.952 v -7.39 c 0,-1.021 0.798,-1.818 1.818,-1.818 h 3.997 c 1.021,0 1.818,0.798 1.818,1.818 v 7.39 c 0,1.003 -0.818,1.818 -1.818,1.818 h -3.997 c -1.001,0 -1.818,-0.815 -1.818,-1.818 z"
           id="path4820"
           style="fill:#ffffff;fill-opacity:1;stroke-width:0" /><path
           d="m 521.98,408.26 v 8.398 c 0,2.178 1.768,4.025 3.854,4.025 h 5.647 c 0.698,0 1.203,-0.484 1.203,-1.141 v -0.37 c 0,-0.661 -0.505,-1.135 -1.203,-1.135 h -4.639 c -1.3,0 -1.986,-0.639 -1.986,-1.854 v -2.457 h 8.369 c 1.346,0 2.142,-0.821 2.142,-2.212 v -3.256 c 0,-2.149 -1.822,-3.8944 -4.054,-3.894 l -5.273,0.001 c -2.2401,0.002 -4.06,1.745 -4.06,3.895 z m 2.877,0.371 c 0,-0.907 0.713,-1.619 1.621,-1.619 h 4.396 c 0.906,0 1.613,0.712 1.613,1.619 v 2.622 h -7.631 c 10e-4,-0.342 10e-4,-2.622 10e-4,-2.622 z"
           id="path4822"
           style="fill:#ffffff;fill-opacity:1;stroke-width:0" /><path
           d="m 547,404.27 c -1.573,0 -2.76,0.564 -3.718,1.021 -0.596,0.28 -1.105,0.525 -1.521,0.525 -0.183,0 -0.257,-0.023 -0.399,-0.269 l -0.331,-0.604 c -0.19,-0.382 -0.513,-0.575 -0.949,-0.575 h -0.465 c -0.562,0 -0.972,0.438 -0.972,1.037 v 14.077 c 0,0.667 0.527,1.203 1.206,1.203 h 0.465 c 0.667,0 1.211,-0.542 1.211,-1.203 v -10.65 c 0,-0.998 0.815,-1.818 1.813,-1.818 h 3.999 c 1.001,0 1.816,0.82 1.816,1.818 v 10.65 c 0,0.667 0.53,1.203 1.203,1.203 h 0.47 c 0.667,0 1.209,-0.542 1.209,-1.203 v -11.055 c 0,-2.526 -1.776,-4.157 -4.535,-4.157 z"
           id="path4824"
           style="fill:#ffffff;fill-opacity:1;stroke-width:0" /></g><g
         transform="matrix(0.23581107,0,0,0.23581107,16.716425,-9.326478)"
         id="g4830"
         style="fill:#ffffff;fill-opacity:1;stroke-width:0.948863"><path
           d="m 667.46,415.23 c 1.218,0 2.188,0.99 2.188,2.229 0,1.257 -0.971,2.237 -2.198,2.237 -1.218,0 -2.208,-0.98 -2.208,-2.237 0,-1.238 0.99,-2.229 2.208,-2.229 z m -0.01,0.346 c -0.98,0 -1.782,0.842 -1.782,1.882 0,1.06 0.802,1.891 1.792,1.891 0.99,0.011 1.782,-0.831 1.782,-1.881 0,-1.05 -0.792,-1.892 -1.782,-1.892 z m -0.416,3.179 h -0.396 v -2.485 c 0.208,-0.03 0.406,-0.06 0.703,-0.06 0.377,0 0.624,0.079 0.772,0.188 0.149,0.108 0.229,0.276 0.229,0.515 0,0.326 -0.218,0.524 -0.485,0.604 v 0.021 c 0.218,0.039 0.366,0.237 0.416,0.604 0.06,0.387 0.118,0.535 0.158,0.614 h -0.416 c -0.06,-0.079 -0.119,-0.307 -0.168,-0.634 -0.06,-0.316 -0.218,-0.436 -0.535,-0.436 h -0.277 v 1.069 z m 0,-1.377 h 0.287 c 0.327,0 0.604,-0.118 0.604,-0.426 0,-0.218 -0.158,-0.436 -0.604,-0.436 -0.129,0 -0.218,0.01 -0.287,0.021 z"
           fill="#73ba25"
           id="path4828"
           style="fill:#ffffff;fill-opacity:1;stroke-width:0.948863" /></g></g><path
       style="font-weight:600;font-size:7.09068px;line-height:0.75;font-family:'Source Sans Pro';-inkscape-font-specification:'Source Sans Pro Semi-Bold';letter-spacing:0.0997124px;word-spacing:0px;fill:#ffffff;stroke-width:4.31577;stroke-linecap:round;stroke-linejoin:round;paint-order:markers fill stroke"
       d="M 7.457,91.1584 7.2939,91.7256 H 8.4781 L 8.315,91.1584 Q 8.2016,90.7897 8.0952,90.3997 7.9962,90.0097 7.8967,89.6268 h -0.028 q -0.092,0.39 -0.1985,0.78 -0.099,0.3829 -0.2128,0.7516 z M 5.9042,93.626 7.4145,88.9886 H 8.3788 L 9.8891,93.626 H 9.0241 L 8.6625,92.3709 h -1.56 L 6.7409,93.626 Z m 5.6871,0.085 q -0.3545,0 -0.709,-0.1347 -0.3546,-0.1418 -0.6098,-0.3474 l 0.3829,-0.5247 q 0.234,0.1772 0.468,0.2836 0.234,0.1064 0.4963,0.1064 0.2836,0 0.4184,-0.1206 0.1347,-0.1205 0.1347,-0.2978 0,-0.1489 -0.1135,-0.2411 -0.1063,-0.099 -0.2765,-0.1702 -0.1702,-0.078 -0.3545,-0.1489 -0.2269,-0.085 -0.4538,-0.2056 -0.2199,-0.1276 -0.3617,-0.3191 -0.1418,-0.1985 -0.1418,-0.4892 0,-0.4609 0.3404,-0.7516 0.3403,-0.2908 0.9218,-0.2908 0.3687,0 0.6594,0.1277 0.2907,0.1276 0.5034,0.2907 l -0.3758,0.4963 q -0.1843,-0.1347 -0.3758,-0.2127 -0.1843,-0.085 -0.39,-0.085 -0.2623,0 -0.39,0.1135 -0.1276,0.1063 -0.1276,0.2694 0,0.2057 0.2127,0.312 0.2128,0.1064 0.4964,0.2056 0.2411,0.085 0.468,0.2128 0.2269,0.1205 0.3758,0.319 0.156,0.1986 0.156,0.5248 0,0.4467 -0.3475,0.7657 -0.3474,0.312 -1.0069,0.312 z m 2.1844,-0.085 v -3.4816 h 0.8154 v 3.4816 z m 0.4113,-4.0914 q -0.2198,0 -0.3546,-0.1276 -0.1347,-0.1276 -0.1347,-0.3404 0,-0.2056 0.1347,-0.3332 0.1348,-0.1276 0.3546,-0.1276 0.2198,0 0.3545,0.1276 0.1347,0.1276 0.1347,0.3332 0,0.2128 -0.1347,0.3404 -0.1347,0.1276 -0.3545,0.1276 z m 2.39,4.1764 q -0.4538,0 -0.7445,-0.2836 -0.2837,-0.2836 -0.2837,-0.7374 0,-0.5602 0.4893,-0.8651 0.4892,-0.312 1.5599,-0.4254 -0.01,-0.2766 -0.1489,-0.4751 -0.1347,-0.2056 -0.4892,-0.2056 -0.2553,0 -0.5035,0.099 -0.2411,0.099 -0.475,0.2411 l -0.2979,-0.546 q 0.2908,-0.1843 0.6524,-0.319 0.3687,-0.1348 0.78,-0.1348 0.6523,0 0.9714,0.39 0.3262,0.3829 0.3262,1.1133 v 2.0634 h -0.6737 l -0.057,-0.3829 h -0.028 q -0.234,0.1985 -0.5035,0.3332 -0.2623,0.1347 -0.5743,0.1347 z m 0.2623,-0.6381 q 0.2127,0 0.3829,-0.099 0.1773,-0.1064 0.3758,-0.2836 v -0.78 q -0.709,0.092 -0.9856,0.2765 -0.2765,0.1773 -0.2765,0.4397 0,0.234 0.1418,0.3403 0.1418,0.1064 0.3616,0.1064 z m 5.5955,0.6381 q -0.468,0 -0.9076,-0.1772 -0.4326,-0.1773 -0.7658,-0.5035 l 0.4821,-0.5601 q 0.2482,0.234 0.5673,0.3829 0.3191,0.1418 0.6382,0.1418 0.397,0 0.6027,-0.1631 0.2056,-0.1631 0.2056,-0.4325 0,-0.2908 -0.2056,-0.4184 -0.1986,-0.1276 -0.5106,-0.2623 L 21.903,91.442 q -0.2269,-0.099 -0.4467,-0.2552 -0.2128,-0.156 -0.3546,-0.3971 -0.1347,-0.2411 -0.1347,-0.5815 0,-0.3687 0.1985,-0.6594 0.2057,-0.2978 0.5531,-0.468 0.3545,-0.1772 0.8083,-0.1772 0.4042,0 0.78,0.163 0.3758,0.156 0.6453,0.4255 l -0.4184,0.5247 q -0.2198,-0.1844 -0.468,-0.2907 -0.241,-0.1064 -0.5389,-0.1064 -0.3261,0 -0.5318,0.1489 -0.1985,0.1418 -0.1985,0.3971 0,0.1773 0.099,0.2978 0.1063,0.1135 0.2765,0.1985 0.1702,0.078 0.3616,0.156 l 0.6311,0.2624 q 0.4113,0.1773 0.6736,0.468 0.2624,0.2836 0.2624,0.787 0,0.3759 -0.1986,0.6878 -0.1985,0.312 -0.5743,0.5035 -0.3687,0.1843 -0.8934,0.1843 z m 3.5741,0 q -0.5601,0 -0.8154,-0.3616 -0.2553,-0.3616 -0.2553,-1.021 v -2.184 h 0.8155 v 2.0776 q 0,0.4325 0.1276,0.6098 0.1276,0.1773 0.4112,0.1773 0.2269,0 0.3971,-0.1135 0.1773,-0.1134 0.3758,-0.3687 v -2.3825 h 0.8155 v 3.4816 h -0.6666 l -0.064,-0.5106 h -0.021 q -0.2269,0.2695 -0.4963,0.4326 -0.2694,0.163 -0.624,0.163 z m 3.0069,-0.085 v -3.4816 h 0.6736 l 0.057,0.4751 h 0.028 q 0.2198,-0.234 0.4751,-0.3971 0.2623,-0.1631 0.5885,-0.1631 0.3829,0 0.6098,0.1702 0.234,0.1631 0.3545,0.4538 0.2482,-0.2694 0.5177,-0.4467 0.2765,-0.1773 0.6027,-0.1773 0.553,0 0.8154,0.3617 0.2624,0.3616 0.2624,1.021 v 2.184 h -0.8226 v -2.0776 q 0,-0.4325 -0.1347,-0.6098 -0.1276,-0.1773 -0.3971,-0.1773 -0.3261,0 -0.7303,0.4325 v 2.4322 h -0.8154 v -2.0776 q 0,-0.4325 -0.1348,-0.6098 -0.1276,-0.1773 -0.4041,-0.1773 -0.3262,0 -0.7304,0.4325 v 2.4322 z m 6.0772,0 v -3.4816 h 0.6736 l 0.057,0.4751 h 0.028 q 0.2198,-0.234 0.475,-0.3971 0.2624,-0.1631 0.5886,-0.1631 0.3829,0 0.6098,0.1702 0.234,0.1631 0.3545,0.4538 0.2482,-0.2694 0.5176,-0.4467 0.2766,-0.1773 0.6027,-0.1773 0.5531,0 0.8155,0.3617 0.2623,0.3616 0.2623,1.021 v 2.184 h -0.8225 v -2.0776 q 0,-0.4325 -0.1347,-0.6098 -0.1277,-0.1773 -0.3971,-0.1773 -0.3262,0 -0.7303,0.4325 v 2.4322 h -0.8155 v -2.0776 q 0,-0.4325 -0.1347,-0.6098 -0.1276,-0.1773 -0.4042,-0.1773 -0.3261,0 -0.7303,0.4325 v 2.4322 z m 6.0771,0 v -3.4816 h 0.8155 v 3.4816 z m 0.4113,-4.0914 q -0.2198,0 -0.3546,-0.1276 -0.1347,-0.1276 -0.1347,-0.3404 0,-0.2056 0.1347,-0.3332 0.1348,-0.1276 0.3546,-0.1276 0.2198,0 0.3545,0.1276 0.1347,0.1276 0.1347,0.3332 0,0.2128 -0.1347,0.3404 -0.1347,0.1276 -0.3545,0.1276 z m 2.7729,4.1764 q -0.6027,0 -0.858,-0.3474 -0.2482,-0.3545 -0.2482,-0.9147 v -1.6592 h -0.4963 v -0.6098 l 0.5389,-0.035 0.099,-0.9501 h 0.6807 v 0.9501 h 0.8864 v 0.6453 h -0.8864 v 1.6592 q 0,0.6098 0.4893,0.6098 0.092,0 0.1915,-0.021 0.099,-0.028 0.1701,-0.057 l 0.1418,0.6027 q -0.1418,0.05 -0.3261,0.085 -0.1773,0.043 -0.3829,0.043 z m 2.7024,-0.085 v -0.4751 q 0.6311,-0.6098 1.0849,-1.0849 0.4609,-0.4822 0.7091,-0.8722 0.2481,-0.397 0.2481,-0.7374 0,-0.3545 -0.1914,-0.5672 -0.1915,-0.2128 -0.5531,-0.2128 -0.2623,0 -0.4822,0.1489 -0.2127,0.149 -0.397,0.3546 l -0.4538,-0.4538 q 0.312,-0.3333 0.6452,-0.5106 0.3333,-0.1843 0.7942,-0.1843 0.6523,0 1.0352,0.3758 0.39,0.3758 0.39,1.0069 0,0.3971 -0.2269,0.8154 -0.2198,0.4113 -0.5956,0.8438 -0.3687,0.4325 -0.8155,0.9076 0.1773,-0.014 0.3829,-0.028 0.2057,-0.021 0.3688,-0.021 h 1.1061 v 0.6949 z m 5.283,0.085 q -0.702,0 -1.1203,-0.6098 -0.4113,-0.6098 -0.4113,-1.7514 0,-1.1416 0.4113,-1.7301 0.4183,-0.5885 1.1203,-0.5885 0.702,0 1.1133,0.5885 0.4183,0.5885 0.4183,1.7301 0,1.1416 -0.4183,1.7514 -0.4113,0.6098 -1.1133,0.6098 z m 0,-0.6381 q 0.2198,0 0.39,-0.1631 0.1702,-0.1702 0.2624,-0.546 0.099,-0.3758 0.099,-1.014 0,-0.6381 -0.099,-1.0068 -0.092,-0.3687 -0.2624,-0.5177 -0.1702,-0.1559 -0.39,-0.1559 -0.2127,0 -0.3829,0.1559 -0.1702,0.149 -0.2694,0.5177 -0.099,0.3687 -0.099,1.0068 0,0.6382 0.099,1.014 0.099,0.3758 0.2694,0.546 0.1702,0.1631 0.3829,0.1631 z m 2.1915,0.5531 v -0.4751 q 0.6311,-0.6098 1.0849,-1.0849 0.4609,-0.4822 0.709,-0.8722 0.2482,-0.397 0.2482,-0.7374 0,-0.3545 -0.1914,-0.5672 -0.1915,-0.2128 -0.5531,-0.2128 -0.2624,0 -0.4822,0.1489 -0.2127,0.149 -0.3971,0.3546 l -0.4538,-0.4538 q 0.312,-0.3333 0.6453,-0.5106 0.3332,-0.1843 0.7941,-0.1843 0.6524,0 1.0353,0.3758 0.39,0.3758 0.39,1.0069 0,0.3971 -0.2269,0.8154 -0.2198,0.4113 -0.5957,0.8438 -0.3687,0.4325 -0.8154,0.9076 0.1773,-0.014 0.3829,-0.028 0.2056,-0.021 0.3687,-0.021 h 1.1062 v 0.6949 z m 5.1766,0.085 q -0.546,0 -0.9218,-0.1843 -0.3687,-0.1915 -0.6169,-0.4396 l 0.3759,-0.5248 q 0.2056,0.1915 0.4609,0.3404 0.2552,0.1418 0.5956,0.1418 0.3758,0 0.6239,-0.2269 0.2482,-0.2269 0.2482,-0.6381 0,-0.4042 -0.2269,-0.624 -0.2269,-0.2198 -0.6027,-0.2198 -0.2198,0 -0.3687,0.064 -0.1489,0.057 -0.3545,0.1914 l -0.39,-0.2481 0.1347,-2.2265 h 2.4108 v 0.6878 h -1.7017 l -0.092,1.0919 q 0.1418,-0.071 0.2765,-0.1063 0.1418,-0.043 0.3191,-0.043 0.39,0 0.7091,0.1489 0.3191,0.1489 0.5105,0.4609 0.1985,0.312 0.1985,0.8013 0,0.4892 -0.2269,0.8367 -0.2198,0.3474 -0.5814,0.5318 -0.3616,0.1843 -0.78,0.1843 z"
       id="path4834"
       aria-label="Asia Summit 2025" /><g
       id="g4844"
       transform="translate(-2031.563,-3018.8496)"
       style="fill:#ffffff"><path
         id="path4836"
         style="color:#000000;fill:#ffffff;stroke-width:0.118337;stroke-linecap:square;-inkscape-stroke:none;paint-order:fill markers stroke"
         d="m 2054.5557,3033.3458 -5.2876,9.1581 c 3.9355,0.7917 7.0655,1.7869 7.7014,2.0004 0.01,-0.2331 0.045,-2.3166 0.045,-2.3166 0,0 0,-0.047 0.029,-0.072 0.033,-0.023 0.081,-0.023 0.081,-0.023 h 5e-4 c 0.4712,0.068 10.5269,1.5591 14.7655,4.0292 0.5233,0.3062 0.7827,0.6311 1.1054,0.9612 1.1719,1.2117 2.7189,6.2509 2.8861,7.29 0.01,0.041 -0.043,0.08 -0.066,0.1013 l -6e-4,-5e-4 c -0.1203,0.094 -0.2503,0.192 -0.3824,0.279 -1.003,0.6728 -3.3138,2.2898 -6.2781,2.0257 -2.6629,-0.2355 -6.1413,-1.7624 -10.3353,-4.5258 0.4125,0.9656 0.8182,1.9338 1.2247,2.9016 0.6074,0.3155 6.4695,3.3023 9.3628,3.2443 2.3305,-0.048 4.8228,-1.1848 5.8198,-1.7849 0,0 0.2191,-0.1299 0.3141,-0.058 0.106,0.081 0.077,0.2037 0.052,0.3297 -0.061,0.2861 -0.2011,0.8084 -0.2961,1.0563 l -0.081,0.2025 c -0.1142,0.3059 -0.2239,0.5893 -0.4351,0.7648 -0.5876,0.5343 -1.5249,0.9593 -2.9941,1.5979 -2.2704,0.9932 -5.9545,1.626 -9.3746,1.603 -1.2249,-0.027 -2.4081,-0.1624 -3.4474,-0.2842 -3.184,-0.3594 -5.4858,-0.6219 -5.964,2.2701 -0.3605,2.156 0.6878,4.5577 1.6108,6.1795 h 21.2648 l 10.6609,-18.465 -10.6609,-18.4651 z m 13.8126,13.0039 c -1.1494,-0.037 -2.246,0.3687 -3.0862,1.1534 -0.8399,0.7819 -1.3207,1.8482 -1.3637,2.9967 -0.079,2.3702 1.7812,4.3665 4.1491,4.4535 1.1545,0.039 2.2482,-0.3664 3.0887,-1.1555 0.8376,-0.7796 1.3182,-1.8456 1.3632,-2.9946 0.081,-2.3674 -1.7808,-4.3685 -4.1511,-4.4535 z m -0.035,1.2671 c 1.6564,0.059 2.9535,1.4503 2.8975,3.1063 -0.026,0.7986 -0.3621,1.5395 -0.9472,2.0882 -0.5862,0.5467 -1.3524,0.8317 -2.156,0.8067 -1.6526,-0.061 -2.9504,-1.4545 -2.8944,-3.1109 0.024,-0.8015 0.3682,-1.5423 0.9509,-2.0888 0.5826,-0.5465 1.345,-0.83 2.1492,-0.801 z m 0.4904,1.5058 c -0.7358,0 -1.3306,0.3968 -1.3306,0.8894 0,0.488 0.5948,0.8863 1.3306,0.8863 0.7356,0 1.3322,-0.3983 1.3322,-0.8863 0,-0.4926 -0.5961,-0.8894 -1.3322,-0.8894 z" /><g
         id="g4842"
         style="fill:#ffffff"><path
           id="path4838"
           style="color:#000000;fill:#ffffff;stroke-linecap:square;-inkscape-stroke:none;paint-order:fill markers stroke"
           d="m 2065.2268,3018.8496 c -0.5524,0.3257 -4.9323,2.9367 -8.8625,6.2533 0.8141,0.2959 1.6508,0.6519 2.4862,1.0692 3.1056,-2.3463 5.9133,-3.9574 5.9133,-3.9574 l 0.463,-0.2656 0.4626,0.2656 c 0,0 2.8022,1.6083 5.904,3.9507 0.8362,-0.4169 1.6743,-0.7727 2.4887,-1.0682 -3.9276,-3.3133 -8.3018,-5.9213 -8.8553,-6.2476 z m -15.2424,6.5779 v 5e-4 c -0.3493,0.8291 -1.128,2.7847 -1.6366,5.6074 -0.2124,1.1789 -0.3473,2.4476 -0.3618,3.7393 0,4e-4 0,6e-4 0,0 -3e-4,0.032 0,0.064 0,0.096 0,0.338 0.01,0.6764 0.023,1.0165 0,0.082 0.01,0.1628 0.012,0.2444 0.022,0.3435 0.056,0.6862 0.099,1.0289 0.01,0.065 0.014,0.1289 0.023,0.1933 0.055,0.3915 0.124,0.7807 0.2108,1.1673 0,0.014 0.01,0.027 0.01,0.041 0.094,0.4133 0.2026,0.8238 0.3375,1.2273 v 0 l 3.7445,-6.4849 c -10e-5,0 -3e-4,-1e-4 -5e-4,0 l 1.0433,-1.8071 h 2.0294 c 0,0 -0.01,0.01 -0.01,0.01 h 7.5437 c 0,0 -0.01,-0.01 -0.01,-0.01 h 0.02 c -2.0061,-2.2649 -4.8146,-3.7478 -7.4042,-4.6794 -2.6986,-0.9705 -4.7805,-1.2746 -5.6741,-1.3869 z m 30.4627,0 c -0.8934,0.1123 -2.9754,0.4164 -5.6735,1.3869 -2.5897,0.9316 -5.3982,2.4142 -7.4042,4.6794 h 0.015 c 0,0 0,0 -0.01,0.01 h 7.5639 c 0,0 0,0 -0.01,-0.01 h 2.0081 l 1.0444,1.8086 c 0,-5e-4 0,0 -0.01,0 l 3.745,6.4869 c 7e-4,0 9e-4,0 0,-0.01 v 0.01 c 0.2685,-0.8038 0.4448,-1.632 0.5596,-2.4665 0,-0.025 0.01,-0.05 0.01,-0.075 0.051,-0.3874 0.088,-0.7753 0.1116,-1.1638 0,-0.04 0,-0.08 0.01,-0.1199 0.021,-0.3932 0.03,-0.7847 0.025,-1.1751 -10e-5,-0.01 5e-4,-0.01 5e-4,-0.015 -2e-4,-10e-5 -4e-4,0 -5e-4,0 -0.015,-1.2901 -0.1496,-2.5569 -0.3618,-3.7347 -0.5087,-2.8227 -1.2876,-4.7795 -1.6371,-5.6094 z m 3.4752,5.3934 c 0.1498,0.8511 0.259,1.7516 0.3148,2.681 3.6572,1.5375 6.5288,3.2132 6.5288,3.2132 l 0.4609,0.2657 v 0.5333 c 0,0 0.01,3.2352 -0.4671,7.0967 0.7458,0.5021 1.4412,1.0347 2.0784,1.5735 0.036,0.03 0.067,0.061 0.1023,0.091 0.9147,-5.0765 0.9859,-10.2026 0.9932,-10.8448 -0.5646,-0.3191 -5.1097,-2.8625 -10.0113,-4.6096 z m -37.4147,0.01 c -4.8925,1.747 -9.4243,4.2822 -9.988,4.6008 0.01,0.6415 0.078,5.7575 0.9901,10.8288 0.029,-0.025 0.055,-0.05 0.084,-0.075 0.6426,-0.5434 1.3448,-1.0798 2.0981,-1.5855 -0.475,-3.8561 -0.4656,-7.0848 -0.4656,-7.0848 v -0.5333 l 0.4609,-0.2656 c 0,0 2.8605,-1.6696 6.5071,-3.2045 0.055,-0.9297 0.1638,-1.8296 0.3132,-2.681 z m 0.038,12.684 c -2.9659,0.6041 -5.6553,2.2954 -7.7576,4.0732 -2.1895,1.8514 -3.4928,3.5025 -4.037,4.2204 0.5433,0.717 1.8486,2.3689 4.039,4.2209 0.8834,0.7469 1.875,1.4725 2.9425,2.1141 -2e-4,8e-4 -4e-4,0 -5e-4,0 0.029,0.017 0.06,0.032 0.089,0.049 0.3013,0.1789 0.6081,0.3498 0.9214,0.5126 0.076,0.039 0.1515,0.078 0.2279,0.1163 0.2999,0.1502 0.6046,0.2904 0.9142,0.4227 0.08,0.034 0.1584,0.07 0.2387,0.1023 0.3405,0.1387 0.6864,0.2638 1.0372,0.3767 0.046,0.015 0.091,0.033 0.1369,0.047 0.4091,0.127 0.8227,0.24 1.2439,0.3261 l -4.7853,-8.2878 0.8961,-1.5519 c 4e-4,0 6e-4,0 10e-4,0 l 3.8877,-6.7334 c 0,3e-4 0,8e-4 0,0 z m 37.3409,0 4.7894,8.2951 -4.7863,8.2894 c 2.9631,-0.6051 5.6493,-2.2952 7.7504,-4.0715 2.1905,-1.852 3.4957,-3.5041 4.0391,-4.221 -0.5442,-0.7179 -1.8476,-2.369 -4.037,-4.2204 -2.1019,-1.7773 -4.7905,-3.4664 -7.7556,-4.0716 z m 9.001,13.8917 c -0.017,0.015 -0.032,0.029 -0.05,0.044 -0.6487,0.5485 -1.3594,1.0896 -2.1208,1.5994 0.5218,4.0147 0.5095,7.4419 0.5095,7.4419 v 0.5333 l -0.461,0.2672 c 0,0 -2.8837,1.6832 -6.553,3.2231 -0.064,0.8314 -0.1687,1.6391 -0.3065,2.4039 -0.018,0.1017 -0.041,0.1949 -0.06,0.2951 4.9311,-1.7477 9.5201,-4.3177 10.0877,-4.6385 -0.01,-0.6581 -0.074,-5.9894 -1.0459,-11.1693 z m -55.3253,0.016 c -0.9688,5.1749 -1.0354,10.4964 -1.0428,11.1538 0.5666,0.3203 5.142,2.8816 10.0639,4.6292 -0.018,-0.097 -0.041,-0.1872 -0.058,-0.2858 -0.1383,-0.7678 -0.243,-1.5789 -0.307,-2.4138 -3.6584,-1.5373 -6.5309,-3.2137 -6.5309,-3.2137 l -0.4609,-0.2672 v -0.5333 c 0,0 -0.013,-3.4201 0.5074,-7.4295 -0.7687,-0.5135 -1.4858,-1.0587 -2.1399,-1.6118 -0.011,-0.01 -0.021,-0.019 -0.032,-0.028 z m 11.1357,6.4094 c -0.9567,2.8686 -0.8361,6.0401 -0.3483,8.7473 0.5085,2.8223 1.2871,4.7775 1.6366,5.6074 0.8938,-0.1124 2.9755,-0.416 5.6736,-1.3865 2.588,-0.9309 5.3943,-2.4121 7.4001,-4.6746 h -9.5736 z m 33.0368,0 -4.7889,8.2946 h -9.5725 c 2.0055,2.2632 4.8117,3.745 7.4001,4.6762 2.6992,0.9712 4.7832,1.2748 5.6756,1.387 0.3495,-0.83 1.1264,-2.7852 1.635,-5.6074 0.4881,-2.7083 0.6087,-5.881 -0.3493,-8.7504 z m -23.179,13.7708 c -0.7639,0.3677 -1.5278,0.6862 -2.2706,0.9534 -0.082,0.029 -0.1591,0.052 -0.2403,0.08 4.0076,3.4442 8.6145,6.1793 9.1818,6.5138 0.5684,-0.3352 5.1698,-3.0674 9.1752,-6.5086 -0.086,-0.03 -0.1684,-0.054 -0.2553,-0.085 -0.7384,-0.2657 -1.4982,-0.5819 -2.2577,-0.9467 -3.2189,2.4658 -6.1996,4.1749 -6.1996,4.1749 l -0.4626,0.2672 -0.463,-0.2672 c 0,0 -2.9859,-1.7123 -6.2079,-4.1816 z" /><path
           id="path4840"
           style="color:#000000;fill:#ffffff;stroke-linecap:square;-inkscape-stroke:none;paint-order:fill markers stroke"
           d="m 2065.2268,3024.1211 c -0.3873,0.2296 -2.3431,1.4034 -4.609,3.0484 1.7119,1.0742 3.3297,2.4436 4.5972,4.1992 1.2705,-1.7603 2.8934,-3.1318 4.6105,-4.207 -2.2615,-1.6411 -4.2118,-2.8114 -4.5987,-3.0406 z m 19.0294,11.4024 c -0.075,2.0139 -0.4523,4.0927 -1.3364,6.0627 2.2194,0.2263 4.269,0.9808 6.0953,1.9699 0.2884,-2.7778 0.3255,-5.0495 0.3307,-5.4984 -0.3987,-0.2245 -2.4638,-1.37 -5.0896,-2.5342 z m -38.0809,0.01 c -2.6156,1.1609 -4.6703,2.3015 -5.0679,2.5254 0,0.4484 0.042,2.7152 0.3297,5.4886 1.8213,-0.9831 3.8637,-1.7323 6.0746,-1.958 -0.8833,-1.9674 -1.2604,-4.044 -1.3364,-6.056 z m 42.7979,24.5494 c -1.8161,0.9774 -3.8515,1.7214 -6.0534,1.9462 0.9388,2.0909 1.3067,4.3049 1.3467,6.4332 2.6202,-1.1615 4.6801,-2.3038 5.0793,-2.5286 -0.01,-0.4659 -0.05,-2.9161 -0.3726,-5.8508 z m -47.4943,0.011 c -0.3216,2.93 -0.3662,5.3746 -0.3715,5.8399 0.3971,0.2237 2.4472,1.3606 5.0581,2.5193 0.041,-2.1255 0.4089,-4.3363 1.3462,-6.4239 -2.1937,-0.224 -4.2218,-0.9634 -6.0328,-1.9353 z m 23.7361,12.1553 c -1.3349,1.8495 -3.0577,3.2707 -4.8705,4.3677 2.3792,1.7491 4.4798,3.0151 4.8823,3.2536 0.402,-0.2382 2.4967,-1.5011 4.8716,-3.2464 -1.8179,-1.0979 -3.5457,-2.5213 -4.8834,-4.3749 z" /></g></g><g
       aria-label="Faridabad, August 29 - 31"
       id="g4888"
       style="font-size:4.42894px;line-height:0.75;font-family:'Source Sans Pro';-inkscape-font-specification:'Source Sans Pro';letter-spacing:0.0622817px;word-spacing:0px;fill:#ffffff;stroke-width:2.69555;stroke-linecap:round;stroke-linejoin:round;paint-order:markers fill stroke"><path
         d="m 10.0562,99.314407 v -2.905384 h 1.674139 v 0.310026 h -1.306537 v 0.983224 h 1.107235 v 0.310026 h -1.107235 v 1.302108 z"
         id="path4846"
         style="fill:#ffffff" /><path
         d="m 12.6164,99.367555 q -0.270166,0 -0.451752,-0.159442 -0.177158,-0.163871 -0.177158,-0.451752 0,-0.354315 0.314455,-0.540331 0.318884,-0.190444 1.005369,-0.265736 0,-0.137297 -0.03986,-0.261308 -0.03543,-0.12401 -0.132868,-0.199302 -0.09301,-0.07972 -0.270166,-0.07972 -0.186015,0 -0.349886,0.07086 -0.163871,0.07086 -0.29231,0.159442 l -0.141726,-0.252449 q 0.150584,-0.09744 0.367602,-0.186016 0.221447,-0.09301 0.478326,-0.09301 0.394175,0 0.571333,0.243592 0.177157,0.239163 0.177157,0.642196 v 1.319824 h -0.301168 l -0.031,-0.256878 h -0.01329 q -0.150584,0.12401 -0.33217,0.217018 -0.177158,0.09301 -0.380889,0.09301 z m 0.106294,-0.29231 q 0.155013,0 0.29231,-0.07529 0.137298,-0.07529 0.29231,-0.212589 v -0.597907 q -0.535901,0.06643 -0.752919,0.199302 -0.212589,0.132868 -0.212589,0.341028 0,0.181587 0.110723,0.265737 0.110724,0.07972 0.270165,0.07972 z"
         id="path4848"
         style="fill:#ffffff" /><path
         d="m 14.414825,99.314407 v -2.152464 h 0.301167 l 0.031,0.389746 h 0.01329 q 0.110723,-0.203731 0.270165,-0.323312 0.159442,-0.119582 0.341029,-0.119582 0.128439,0 0.230304,0.04429 l -0.07086,0.318883 q -0.05315,-0.01772 -0.09744,-0.02657 -0.04429,-0.0089 -0.110724,-0.0089 -0.137297,0 -0.287881,0.110723 -0.146155,0.110724 -0.256878,0.385318 v 1.381829 z"
         id="path4850"
         style="fill:#ffffff" /><path
         d="m 16.013949,99.314407 v -2.152464 h 0.363173 v 2.152464 z m 0.186015,-2.595358 q -0.106294,0 -0.177157,-0.06201 -0.06643,-0.06643 -0.06643,-0.177157 0,-0.106295 0.06643,-0.172729 0.07086,-0.06643 0.177157,-0.06643 0.106295,0 0.172729,0.06643 0.07086,0.06643 0.07086,0.172729 0,0.110723 -0.07086,0.177157 -0.06643,0.06201 -0.172729,0.06201 z"
         id="path4852"
         style="fill:#ffffff" /><path
         d="m 17.900956,99.367555 q -0.403034,0 -0.646626,-0.29231 -0.243591,-0.296739 -0.243591,-0.832641 0,-0.349886 0.128439,-0.602336 0.132868,-0.256878 0.345457,-0.394176 0.217018,-0.137297 0.46061,-0.137297 0.186015,0 0.323313,0.06643 0.137297,0.06643 0.279023,0.181587 l -0.01772,-0.367602 v -0.828212 h 0.367602 v 3.153405 h -0.301168 l -0.031,-0.252449 h -0.01329 q -0.124011,0.12401 -0.29231,0.217018 -0.1683,0.08858 -0.358744,0.08858 z m 0.07972,-0.305597 q 0.283453,0 0.549189,-0.296739 v -1.124951 q -0.137297,-0.12401 -0.265736,-0.172729 -0.124011,-0.05315 -0.256879,-0.05315 -0.172729,0 -0.314455,0.106295 -0.137297,0.101865 -0.221447,0.287881 -0.08415,0.181586 -0.08415,0.429607 0,0.385318 0.155012,0.606765 0.155013,0.217018 0.438465,0.217018 z"
         id="path4854"
         style="fill:#ffffff" /><path
         d="m 20.182137,99.367555 q -0.270165,0 -0.451752,-0.159442 -0.177157,-0.163871 -0.177157,-0.451752 0,-0.354315 0.314454,-0.540331 0.318884,-0.190444 1.00537,-0.265736 0,-0.137297 -0.03986,-0.261308 -0.03543,-0.12401 -0.132868,-0.199302 -0.09301,-0.07972 -0.270165,-0.07972 -0.186016,0 -0.349887,0.07086 -0.16387,0.07086 -0.29231,0.159442 l -0.141726,-0.252449 q 0.150584,-0.09744 0.367602,-0.186016 0.221447,-0.09301 0.478326,-0.09301 0.394175,0 0.571333,0.243592 0.177158,0.239163 0.177158,0.642196 v 1.319824 h -0.301168 l -0.031,-0.256878 h -0.01329 q -0.150584,0.12401 -0.33217,0.217018 -0.177158,0.09301 -0.380889,0.09301 z m 0.106295,-0.29231 q 0.155012,0 0.29231,-0.07529 0.137297,-0.07529 0.29231,-0.212589 v -0.597907 q -0.535902,0.06643 -0.75292,0.199302 -0.212589,0.132868 -0.212589,0.341028 0,0.181587 0.110723,0.265737 0.110724,0.07972 0.270166,0.07972 z"
         id="path4856"
         style="fill:#ffffff" /><path
         d="m 22.932784,99.367555 q -0.150584,0 -0.314455,-0.07086 -0.159442,-0.07529 -0.301168,-0.203732 h -0.01329 l -0.031,0.221447 h -0.29231 v -3.153405 h 0.363173 v 0.859215 l -0.0089,0.389746 q 0.146155,-0.128439 0.318884,-0.212589 0.177157,-0.08858 0.354315,-0.08858 0.420749,0 0.637767,0.296739 0.217018,0.296739 0.217018,0.797209 0,0.367602 -0.132868,0.62891 -0.128439,0.261307 -0.341028,0.398604 -0.208161,0.137298 -0.456181,0.137298 z m -0.06201,-0.305597 q 0.265736,0 0.438465,-0.225876 0.177157,-0.230305 0.177157,-0.62891 0,-0.354315 -0.132868,-0.571333 -0.128439,-0.221447 -0.434036,-0.221447 -0.137297,0 -0.279023,0.07529 -0.141726,0.07529 -0.296739,0.217018 v 1.12938 q 0.141726,0.12401 0.279023,0.177157 0.141726,0.04872 0.248021,0.04872 z"
         id="path4858"
         style="fill:#ffffff" /><path
         d="m 24.926081,99.367555 q -0.270165,0 -0.451752,-0.159442 -0.177157,-0.163871 -0.177157,-0.451752 0,-0.354315 0.314454,-0.540331 0.318884,-0.190444 1.00537,-0.265736 0,-0.137297 -0.03986,-0.261308 -0.03543,-0.12401 -0.132868,-0.199302 -0.09301,-0.07972 -0.270165,-0.07972 -0.186016,0 -0.349886,0.07086 -0.163871,0.07086 -0.29231,0.159442 L 24.39018,97.387817 q 0.150584,-0.09744 0.367602,-0.186016 0.221447,-0.09301 0.478326,-0.09301 0.394176,0 0.571333,0.243592 0.177158,0.239163 0.177158,0.642196 v 1.319824 H 25.68343 l -0.031,-0.256878 h -0.01329 q -0.150584,0.12401 -0.332171,0.217018 -0.177158,0.09301 -0.380889,0.09301 z m 0.106295,-0.29231 q 0.155013,0 0.29231,-0.07529 0.137297,-0.07529 0.29231,-0.212589 v -0.597907 q -0.535902,0.06643 -0.75292,0.199302 -0.212589,0.132868 -0.212589,0.341028 0,0.181587 0.110723,0.265737 0.110724,0.07972 0.270166,0.07972 z"
         id="path4860"
         style="fill:#ffffff" /><path
         d="m 27.45971,99.367555 q -0.403034,0 -0.646625,-0.29231 -0.243592,-0.296739 -0.243592,-0.832641 0,-0.349886 0.128439,-0.602336 0.132869,-0.256878 0.345458,-0.394176 0.217018,-0.137297 0.460609,-0.137297 0.186016,0 0.323313,0.06643 0.137297,0.06643 0.279023,0.181587 l -0.01772,-0.367602 v -0.828212 h 0.367602 v 3.153405 H 28.15505 l -0.031,-0.252449 h -0.01329 q -0.12401,0.12401 -0.29231,0.217018 -0.1683,0.08858 -0.358744,0.08858 z m 0.07972,-0.305597 q 0.283452,0 0.549188,-0.296739 v -1.124951 q -0.137297,-0.12401 -0.265736,-0.172729 -0.12401,-0.05315 -0.256878,-0.05315 -0.172729,0 -0.314455,0.106295 -0.137297,0.101865 -0.221447,0.287881 -0.08415,0.181586 -0.08415,0.429607 0,0.385318 0.155013,0.606765 0.155013,0.217018 0.438465,0.217018 z"
         id="path4862"
         style="fill:#ffffff" /><path
         d="m 29.178418,100.06733 -0.08858,-0.212592 q 0.190444,-0.08415 0.296739,-0.225876 0.106294,-0.137297 0.101865,-0.314455 -0.0089,0.0044 -0.02214,0.0044 -0.01329,0 -0.02214,0 -0.106295,0 -0.186016,-0.062 -0.07529,-0.06643 -0.07529,-0.190444 0,-0.119582 0.07972,-0.186016 0.07972,-0.07086 0.190445,-0.07086 0.141726,0 0.221447,0.115153 0.08415,0.115152 0.08415,0.314454 0,0.283453 -0.155013,0.496042 -0.155013,0.217018 -0.425178,0.332174 z"
         id="path4864"
         style="fill:#ffffff" /><path
         d="m 31.893916,97.688986 -0.137297,0.442894 h 0.872501 l -0.137297,-0.442894 q -0.07972,-0.243591 -0.150584,-0.482754 -0.07086,-0.243592 -0.141726,-0.496041 h -0.01772 q -0.06643,0.252449 -0.137297,0.496041 -0.07086,0.239163 -0.150584,0.482754 z m -0.885788,1.625421 0.983225,-2.905384 h 0.41632 l 0.983225,2.905384 h -0.394176 l -0.274594,-0.885788 h -1.058517 l -0.279023,0.885788 z"
         id="path4866"
         style="fill:#ffffff" /><path
         d="m 34.431975,99.367555 q -0.341028,0 -0.50047,-0.212589 -0.159442,-0.217019 -0.159442,-0.62891 v -1.364113 h 0.367602 v 1.315395 q 0,0.301168 0.09301,0.438465 0.09744,0.137297 0.310026,0.137297 0.168299,0 0.296739,-0.08415 0.132868,-0.08858 0.283452,-0.279023 v -1.527984 h 0.363173 v 2.152464 h -0.301168 l -0.031,-0.336599 h -0.01329 q -0.150584,0.177158 -0.318884,0.283452 -0.1683,0.106295 -0.389747,0.106295 z"
         id="path4868"
         style="fill:#ffffff" /><path
         d="m 37.00104,100.30649 q -0.394175,0 -0.642196,-0.15058 -0.248021,-0.15059 -0.248021,-0.429611 0,-0.137297 0.08415,-0.265737 0.08415,-0.12401 0.230305,-0.221447 V 99.2214 q -0.07972,-0.04872 -0.137297,-0.137298 -0.05315,-0.08858 -0.05315,-0.212589 0,-0.137297 0.07529,-0.239162 0.07529,-0.101866 0.159441,-0.159442 v -0.01772 q -0.106294,-0.08858 -0.194873,-0.239163 -0.08415,-0.150584 -0.08415,-0.341028 0,-0.234734 0.110724,-0.407463 0.110723,-0.172728 0.296739,-0.265736 0.186015,-0.09301 0.403033,-0.09301 0.08858,0 0.1683,0.01772 0.07972,0.01329 0.137297,0.03543 h 0.748491 v 0.279023 h -0.442894 q 0.07529,0.07086 0.12401,0.190444 0.05315,0.115153 0.05315,0.25245 0,0.230305 -0.106294,0.398604 -0.106295,0.1683 -0.283452,0.261308 -0.177158,0.08858 -0.398605,0.08858 -0.172728,0 -0.323312,-0.07529 -0.05758,0.04872 -0.09744,0.110723 -0.03986,0.05758 -0.03986,0.146155 0,0.101866 0.07972,0.1683 0.08415,0.06643 0.301168,0.06643 h 0.416321 q 0.376459,0 0.562475,0.12401 0.190444,0.119582 0.190444,0.389747 0,0.199302 -0.132868,0.367602 -0.132868,0.168295 -0.37646,0.270165 -0.243591,0.10629 -0.580191,0.10629 z m 0,-1.917731 q 0.186016,0 0.318884,-0.137297 0.137297,-0.141726 0.137297,-0.37646 0,-0.234734 -0.132868,-0.367602 -0.132868,-0.132868 -0.323313,-0.132868 -0.190444,0 -0.323312,0.132868 -0.132869,0.132868 -0.132869,0.367602 0,0.234734 0.132869,0.37646 0.137297,0.137297 0.323312,0.137297 z m 0.05315,1.665281 q 0.310026,0 0.496042,-0.137297 0.186015,-0.132868 0.186015,-0.301168 0,-0.150584 -0.115152,-0.20816 -0.110724,-0.05758 -0.318884,-0.05758 H 36.93018 q -0.062,0 -0.137297,-0.0089 -0.07086,-0.0089 -0.141726,-0.02657 -0.115153,0.08415 -0.1683,0.177158 -0.05315,0.09301 -0.05315,0.186015 0,0.172729 0.163871,0.274595 0.168299,0.101867 0.460609,0.101867 z"
         id="path4870"
         style="fill:#ffffff" /><path
         d="m 39.198069,99.367555 q -0.341028,0 -0.50047,-0.212589 -0.159442,-0.217019 -0.159442,-0.62891 v -1.364113 h 0.367602 v 1.315395 q 0,0.301168 0.09301,0.438465 0.09744,0.137297 0.310026,0.137297 0.1683,0 0.296739,-0.08415 0.132868,-0.08858 0.283452,-0.279023 v -1.527984 h 0.363173 v 2.152464 h -0.301168 l -0.031,-0.336599 H 39.9067 q -0.150584,0.177158 -0.318884,0.283452 -0.1683,0.106295 -0.389747,0.106295 z"
         id="path4872"
         style="fill:#ffffff" /><path
         d="m 41.603264,99.367555 q -0.230305,0 -0.438465,-0.08415 -0.208161,-0.08858 -0.363174,-0.212589 l 0.181587,-0.243592 q 0.141726,0.110723 0.29231,0.186015 0.150584,0.07086 0.341028,0.07086 0.21259,0 0.318884,-0.09744 0.106295,-0.101866 0.106295,-0.239163 0,-0.110723 -0.07529,-0.186015 -0.07086,-0.07529 -0.186016,-0.124011 -0.110723,-0.05315 -0.230305,-0.09744 -0.150584,-0.05758 -0.296739,-0.12844 -0.146155,-0.07529 -0.239162,-0.190444 -0.09301,-0.119581 -0.09301,-0.301168 0,-0.261307 0.194873,-0.434036 0.199302,-0.177158 0.549189,-0.177158 0.199302,0 0.372031,0.07086 0.172728,0.07086 0.296739,0.172729 l -0.177158,0.230305 q -0.110723,-0.08415 -0.230305,-0.137297 -0.119581,-0.05315 -0.261307,-0.05315 -0.203731,0 -0.301168,0.09301 -0.09301,0.09301 -0.09301,0.217018 0,0.101866 0.06643,0.1683 0.06643,0.06201 0.172729,0.110723 0.106294,0.04429 0.225876,0.09301 0.155013,0.05758 0.305597,0.132868 0.150584,0.07086 0.24802,0.194874 0.101866,0.119581 0.101866,0.323312 0,0.172729 -0.09301,0.318884 -0.08858,0.146155 -0.265736,0.234734 -0.172729,0.08858 -0.429607,0.08858 z"
         id="path4874"
         style="fill:#ffffff" /><path
         d="m 43.547846,99.367555 q -0.345458,0 -0.482755,-0.199303 -0.132868,-0.199302 -0.132868,-0.518186 v -1.191384 h -0.318884 v -0.274595 l 0.3366,-0.02214 0.04429,-0.602336 h 0.305597 v 0.602336 h 0.580191 v 0.296739 h -0.580191 v 1.195813 q 0,0.199303 0.07086,0.310026 0.07529,0.106295 0.261308,0.106295 0.05758,0 0.12401,-0.01772 0.06643,-0.02214 0.119581,-0.03986 l 0.07086,0.274595 q -0.08858,0.031 -0.194873,0.05315 -0.101866,0.02657 -0.203731,0.02657 z"
         id="path4876"
         style="fill:#ffffff" /><path
         d="m 45.191534,99.314407 v -0.217018 q 0.425178,-0.425178 0.721917,-0.744062 0.296739,-0.323312 0.451752,-0.580191 0.155013,-0.261307 0.155013,-0.487183 0,-0.243592 -0.132868,-0.398605 -0.132868,-0.155013 -0.403034,-0.155013 -0.177157,0 -0.327741,0.101866 -0.150584,0.09744 -0.274594,0.239163 l -0.208161,-0.20816 q 0.177158,-0.194874 0.37646,-0.310026 0.203732,-0.119582 0.478326,-0.119582 0.394176,0 0.620051,0.230305 0.225876,0.225876 0.225876,0.602336 0,0.265737 -0.150584,0.540331 -0.146155,0.270165 -0.407462,0.571333 -0.256879,0.296739 -0.593478,0.646625 0.115152,-0.0089 0.239163,-0.01772 0.12401,-0.0089 0.234734,-0.0089 h 0.819353 v 0.314454 z"
         id="path4878"
         style="fill:#ffffff" /><path
         d="m 47.796028,97.343529 q 0,0.274594 0.12844,0.438465 0.132868,0.159442 0.394175,0.159442 0.141726,0 0.296739,-0.08858 0.159442,-0.08858 0.296739,-0.287881 -0.03543,-0.411891 -0.194873,-0.62448 -0.159442,-0.217018 -0.429607,-0.217018 -0.203731,0 -0.349886,0.172728 -0.141727,0.1683 -0.141727,0.447324 z m 0.389747,2.024026 q -0.225876,0 -0.398604,-0.08415 -0.1683,-0.08858 -0.283453,-0.212589 l 0.203732,-0.230305 q 0.08858,0.101865 0.20816,0.163871 0.12401,0.062 0.256878,0.062 0.199303,0 0.367602,-0.115153 0.1683,-0.115152 0.270166,-0.380889 0.106294,-0.265736 0.110723,-0.717488 -0.132868,0.1683 -0.310026,0.265737 -0.177157,0.09744 -0.354315,0.09744 -0.363173,0 -0.58462,-0.217018 Q 47.455,97.777565 47.455,97.343529 q 0,-0.270165 0.115153,-0.473896 0.115152,-0.203732 0.301167,-0.318884 0.190445,-0.115153 0.416321,-0.115153 0.279023,0 0.50047,0.150584 0.221447,0.150584 0.345457,0.451752 0.12844,0.301168 0.12844,0.757349 0,0.566904 -0.155013,0.912362 -0.150584,0.345457 -0.394176,0.504899 -0.243592,0.155013 -0.527044,0.155013 z"
         id="path4880"
         style="fill:#ffffff" /><path
         d="m 50.670965,98.34447 v -0.279024 h 1.018657 v 0.279024 z"
         id="path4882"
         style="fill:#ffffff" /><path
         d="m 53.922365,99.367555 q -0.336599,0 -0.562475,-0.119582 -0.225876,-0.12401 -0.367602,-0.279023 l 0.186015,-0.239163 q 0.128439,0.132868 0.301168,0.234734 0.172729,0.101866 0.420749,0.101866 0.256879,0 0.42075,-0.141726 0.16387,-0.141726 0.16387,-0.37646 0,-0.1683 -0.08858,-0.29231 -0.08415,-0.12844 -0.283453,-0.199303 -0.194873,-0.07086 -0.531472,-0.07086 v -0.279023 q 0.301168,0 0.473896,-0.07086 0.177158,-0.07086 0.25245,-0.190444 0.07529,-0.119582 0.07529,-0.265737 0,-0.20816 -0.132868,-0.327741 -0.12844,-0.119582 -0.354316,-0.119582 -0.177157,0 -0.327741,0.07972 -0.146155,0.07972 -0.274594,0.208161 l -0.194874,-0.230305 q 0.163871,-0.155013 0.363173,-0.25245 0.199303,-0.101866 0.447323,-0.101866 0.367602,0 0.606765,0.190445 0.239163,0.186015 0.239163,0.527044 0,0.256878 -0.141726,0.420749 -0.141726,0.163871 -0.372031,0.25245 v 0.01771 q 0.256878,0.05758 0.434036,0.243592 0.177157,0.181587 0.177157,0.473897 0,0.24802 -0.12401,0.429607 -0.12401,0.181586 -0.336599,0.279023 -0.20816,0.09744 -0.469468,0.09744 z"
         id="path4884"
         style="fill:#ffffff" /><path
         d="m 55.490487,99.314407 v -0.301168 h 0.646626 v -2.081601 h -0.513757 v -0.234734 q 0.194873,-0.03543 0.336599,-0.08415 0.146155,-0.05315 0.261307,-0.12401 h 0.279024 v 2.524495 h 0.58462 v 0.301168 z"
         id="path4886"
         style="fill:#ffffff" /></g></g></svg>
